<svg width="62" height="62" fill="none" xmlns="http://www.w3.org/2000/svg"><path d="M58.125 30.998H3.875a3.88 3.88 0 01-3.874-3.875V16.789a3.88 3.88 0 013.875-3.874h54.25A3.88 3.88 0 0162 16.79v10.333a3.88 3.88 0 01-3.875 3.875zm-54.25-15.5c-.71 0-1.29.579-1.29 1.292v10.333c0 .713.58 1.291 1.29 1.291h54.25c.71 0 1.292-.578 1.292-1.291V16.789c0-.713-.581-1.291-1.292-1.291H3.875z" fill="url(#paint0_angular_42:1077)"/><path d="M50.375 61.997h-38.75a6.466 6.466 0 01-6.458-6.458V29.706a1.292 1.292 0 012.584 0v25.833a3.88 3.88 0 003.875 3.875h38.75a3.88 3.88 0 003.874-3.875V29.706a1.292 1.292 0 012.584 0v25.833a6.466 6.466 0 01-6.459 6.458z" fill="url(#paint1_angular_42:1077)"/><path d="M31.002 61.997a1.292 1.292 0 01-1.292-1.291v-31a1.292 1.292 0 012.583 0v31c0 .713-.578 1.291-1.291 1.291z" fill="url(#paint2_angular_42:1077)"/><path d="M31 15.498c-.093 0-.186-.01-.279-.031-1.627-.362-9.86-2.27-12.035-4.446a6.398 6.398 0 01-1.894-4.565c0-1.725.672-3.348 1.891-4.567 2.519-2.519 6.616-2.519 9.132 0 2.175 2.173 4.084 10.408 4.446 12.038.095.432-.036.881-.349 1.191-.243.245-.573.38-.912.38zM23.25 2.584a3.866 3.866 0 00-3.875 3.872c0 1.036.403 2.008 1.134 2.741 1.005 1.005 5.206 2.361 8.745 3.266-.907-3.54-2.26-7.74-3.266-8.745a3.848 3.848 0 00-2.738-1.134z" fill="url(#paint3_angular_42:1077)"/><path d="M31 15.498a1.289 1.289 0 01-1.263-1.568c.362-1.63 2.271-9.863 4.447-12.038 2.518-2.522 6.615-2.517 9.131 0a6.398 6.398 0 011.894 4.564 6.417 6.417 0 01-1.891 4.568c-2.175 2.175-10.408 4.084-12.036 4.445a1.506 1.506 0 01-.281.029zm7.75-12.914c-.991 0-1.986.377-2.74 1.131-1.005 1.005-2.359 5.206-3.265 8.745 3.539-.904 7.74-2.26 8.744-3.265a3.837 3.837 0 001.137-2.739 3.866 3.866 0 00-3.875-3.872zm-3.652.22h.026-.026z" fill="url(#paint4_angular_42:1077)"/><defs><radialGradient id="paint0_angular_42:1077" cx="0" cy="0" r="1" gradientUnits="userSpaceOnUse" gradientTransform="rotate(171.513 38.207 16.669) scale(47.8312 22.9095)"><stop offset=".011" stop-color="#E8EACD"/><stop offset=".07" stop-color="#D1CDD5"/><stop offset=".179" stop-color="#B8E4D8"/><stop offset=".241" stop-color="#B9DAE5"/><stop offset=".311" stop-color="#BBCDF6"/><stop offset=".8" stop-color="#DCCFDF"/></radialGradient><radialGradient id="paint1_angular_42:1077" cx="0" cy="0" r="1" gradientUnits="userSpaceOnUse" gradientTransform="rotate(161.606 30.777 33.477) scale(41.5455 40.8194)"><stop offset=".011" stop-color="#E8EACD"/><stop offset=".07" stop-color="#D1CDD5"/><stop offset=".179" stop-color="#B8E4D8"/><stop offset=".241" stop-color="#B9DAE5"/><stop offset=".311" stop-color="#BBCDF6"/><stop offset=".8" stop-color="#DCCFDF"/></radialGradient><radialGradient id="paint2_angular_42:1077" cx="0" cy="0" r="1" gradientUnits="userSpaceOnUse" gradientTransform="rotate(98.551 -7.414 41.962) scale(13.2573 6.39599)"><stop offset=".011" stop-color="#E8EACD"/><stop offset=".07" stop-color="#D1CDD5"/><stop offset=".179" stop-color="#B8E4D8"/><stop offset=".241" stop-color="#B9DAE5"/><stop offset=".311" stop-color="#BBCDF6"/><stop offset=".8" stop-color="#DCCFDF"/></radialGradient><radialGradient id="paint3_angular_42:1077" cx="0" cy="0" r="1" gradientUnits="userSpaceOnUse" gradientTransform="rotate(152.908 16.695 10.643) scale(13.2842 17.6734)"><stop offset=".011" stop-color="#E8EACD"/><stop offset=".07" stop-color="#D1CDD5"/><stop offset=".179" stop-color="#B8E4D8"/><stop offset=".241" stop-color="#B9DAE5"/><stop offset=".311" stop-color="#BBCDF6"/><stop offset=".8" stop-color="#DCCFDF"/></radialGradient><radialGradient id="paint4_angular_42:1077" cx="0" cy="0" r="1" gradientUnits="userSpaceOnUse" gradientTransform="rotate(152.915 23.154 12.197) scale(13.2855 17.6717)"><stop offset=".011" stop-color="#E8EACD"/><stop offset=".07" stop-color="#D1CDD5"/><stop offset=".179" stop-color="#B8E4D8"/><stop offset=".241" stop-color="#B9DAE5"/><stop offset=".311" stop-color="#BBCDF6"/><stop offset=".8" stop-color="#DCCFDF"/></radialGradient></defs></svg>