<svg width="17" height="20" fill="none" xmlns="http://www.w3.org/2000/svg"><path d="M12.5 5.736v-1.66C12.5 1.81 10.805 0 8.686 0H7.91C5.79 0 4.096 1.811 4.096 4.075v1.66H0v11.473C0 18.716 1.13 20 2.613 20h11.44c1.413 0 2.614-1.283 2.614-2.793V5.736H12.5zm-7.556-1.66C4.944 2.34 6.285.98 7.839.98h.777c1.624 0 2.895 1.434 2.895 3.094v1.66H4.944v-1.66zm10.734 13.056c0 .981-.777 1.811-1.695 1.811H2.543c-.919 0-1.696-.83-1.696-1.81V6.641h3.178v3.396h.919V6.64h6.567v3.397h.918V6.64h3.178v10.491h.071z" fill="#fff"/></svg>