<svg width="17" height="15" fill="none" xmlns="http://www.w3.org/2000/svg"><path d="M8.5 15c-.242 0-.475-.087-.657-.245a194.959 194.959 0 00-1.933-1.649l-.003-.002c-1.713-1.448-3.192-2.698-4.22-3.93C.535 7.799 0 6.494 0 5.068c0-1.385.479-2.664 1.349-3.6A4.589 4.589 0 014.749 0C5.73 0 6.63.308 7.42.914c.4.307.761.682 1.08 1.119A5.44 5.44 0 019.58.914 4.299 4.299 0 0112.251 0a4.59 4.59 0 013.4 1.468C16.521 2.403 17 3.682 17 5.067c0 1.426-.536 2.731-1.686 4.108-1.029 1.231-2.508 2.481-4.22 3.928a196.3 196.3 0 00-1.937 1.652A1.003 1.003 0 018.5 15zM4.75.988a3.6 3.6 0 00-2.67 1.15C1.382 2.89.997 3.93.997 5.066c0 1.2.45 2.272 1.457 3.477.974 1.166 2.422 2.39 4.1 3.808l.003.003c.586.495 1.25 1.057 1.943 1.657.696-.601 1.361-1.164 1.949-1.66 1.677-1.418 3.125-2.642 4.1-3.808 1.007-1.205 1.456-2.278 1.456-3.477 0-1.137-.385-2.177-1.085-2.93a3.6 3.6 0 00-2.668-1.15 3.32 3.32 0 00-2.062.709c-.546.418-.926.948-1.15 1.318a.625.625 0 01-.539.305.625.625 0 01-.54-.305c-.223-.37-.603-.9-1.15-1.318A3.32 3.32 0 004.75.988z" fill="#828282"/></svg>