<svg width="30" height="18" fill="none" xmlns="http://www.w3.org/2000/svg"><circle cx="15" cy="9" r="8" fill="#BBCDF6"/><circle cx="14.5" cy="9.5" r="2.5" fill="#000"/><path d="M29.057 7.713a18.28 18.28 0 00-6.209-5.084A17.914 17.914 0 0014.54.734c-2.757.034-5.397.67-7.852 1.895A18.281 18.281 0 00.48 7.713a2.258 2.258 0 000 2.781 18.28 18.28 0 006.21 5.084 17.913 17.913 0 008.307 1.895 17.915 17.915 0 007.852-1.895 18.28 18.28 0 006.21-5.084 2.258 2.258 0 000-2.781zm-21.832 6.79a17.074 17.074 0 01-5.799-4.748 1.059 1.059 0 010-1.303 17.072 17.072 0 015.8-4.748 16.948 16.948 0 011.951-.827 8.353 8.353 0 00-2.781 6.226 8.353 8.353 0 002.781 6.227 16.95 16.95 0 01-1.952-.827zm7.543 1.771c-3.954 0-7.17-3.217-7.17-7.17 0-3.955 3.216-7.171 7.17-7.171 3.954 0 7.171 3.216 7.171 7.17 0 3.954-3.217 7.171-7.17 7.171zM28.11 9.755a17.072 17.072 0 01-5.799 4.748c-.637.318-1.287.592-1.95.825a8.353 8.353 0 002.78-6.225 8.353 8.353 0 00-2.782-6.226c.663.233 1.315.508 1.952.827a17.073 17.073 0 015.8 4.748c.298.384.298.92-.001 1.303z" fill="#828282"/><path d="M14.768 6.035A3.072 3.072 0 0011.7 9.104a3.072 3.072 0 003.068 3.068 3.072 3.072 0 003.07-3.069 3.072 3.072 0 00-3.07-3.068zm0 4.936a1.87 1.87 0 01-1.867-1.867 1.87 1.87 0 011.867-1.868 1.87 1.87 0 011.868 1.868 1.87 1.87 0 01-1.868 1.867z" fill="#828282"/></svg>