<svg width="22" height="13" fill="none" xmlns="http://www.w3.org/2000/svg"><path d="M21.187 5.09a13.33 13.33 0 00-4.527-3.707A13.062 13.062 0 0010.602 0c-2.01.025-3.936.49-5.725 1.383A13.33 13.33 0 00.349 5.09a1.647 1.647 0 000 2.027 13.33 13.33 0 004.528 3.707 13.063 13.063 0 006.058 1.382 13.064 13.064 0 005.725-1.382 13.331 13.331 0 004.527-3.707 1.647 1.647 0 000-2.027zM5.268 10.04A12.448 12.448 0 011.04 6.58a.772.772 0 010-.95 12.355 12.355 0 015.651-4.065 6.09 6.09 0 00-2.027 4.54c0 1.8.783 3.421 2.028 4.54a12.34 12.34 0 01-1.424-.604zm5.5 1.292A5.234 5.234 0 015.54 6.103 5.234 5.234 0 0110.768.875a5.234 5.234 0 015.229 5.228 5.234 5.234 0 01-5.229 5.229zm9.728-4.753a12.449 12.449 0 01-4.228 3.462c-.464.231-.939.431-1.422.601a6.09 6.09 0 002.027-4.539 6.09 6.09 0 00-2.029-4.54 12.355 12.355 0 015.652 4.065c.219.28.219.67 0 .95z" fill="#828282"/><path d="M10.768 3.866a2.24 2.24 0 00-2.237 2.238 2.24 2.24 0 002.237 2.237 2.24 2.24 0 002.238-2.237 2.24 2.24 0 00-2.238-2.238zm0 3.6a1.363 1.363 0 010-2.723c.75 0 1.362.61 1.362 1.36 0 .752-.611 1.362-1.362 1.362z" fill="#828282"/></svg>