<svg width="24" height="40" fill="none" xmlns="http://www.w3.org/2000/svg"><path d="M10.224 27.927c-2.978-.31-5.664-1.044-7.963-2.842-.285-.224-.58-.44-.84-.69-1.006-.966-1.108-2.073-.311-3.213.68-.976 1.824-1.237 3.013-.677.23.109.45.244.66.39 4.284 2.944 10.17 3.025 14.47.132.427-.326.882-.593 1.41-.729 1.026-.263 1.984.114 2.535 1.012.629 1.025.62 2.026-.155 2.823-1.189 1.22-2.62 2.104-4.209 2.72-1.502.582-3.148.876-4.777 1.07.245.268.361.4.515.554 2.212 2.223 4.434 4.436 6.639 6.665.75.76.908 1.702.494 2.586-.452.965-1.464 1.6-2.457 1.533-.629-.044-1.12-.357-1.555-.796-1.67-1.68-3.37-3.329-5.006-5.04-.476-.498-.705-.404-1.125.028a334.723 334.723 0 01-5.103 5.124c-.77.76-1.688.897-2.582.463-.95-.46-1.555-1.43-1.508-2.406.032-.659.356-1.163.809-1.615 2.189-2.186 4.372-4.377 6.556-6.567.144-.145.28-.3.49-.525z" fill="#78859D"/><path d="M12.038 20.313c-5.313-.018-9.67-4.423-9.639-9.744.03-5.38 4.39-9.716 9.756-9.701 5.376.014 9.69 4.412 9.664 9.848-.027 5.31-4.414 9.615-9.781 9.597zm4.828-9.731a4.736 4.736 0 00-4.75-4.749 4.743 4.743 0 00-4.762 4.806 4.736 4.736 0 004.786 4.71 4.726 4.726 0 004.726-4.768z" fill="#78859D"/></svg>