<svg width="45" height="26" fill="none" xmlns="http://www.w3.org/2000/svg"><path d="M42.708 20.32c-1.298-1.557-2.825-2.886-4.27-4.296-1.304-1.272-1.386-2.01-.338-3.477 1.143-1.602 2.374-3.143 3.528-4.737 1.077-1.49 2.179-2.977 2.745-4.761.36-1.135.042-1.637-1.122-1.836a3.593 3.593 0 00-.612-.036l-6.907-.008c-.85-.013-1.32.358-1.622 1.112-.406 1.019-.825 2.037-1.308 3.02-1.098 2.23-2.324 4.386-4.043 6.21-.379.403-.798.912-1.431.702-.793-.289-1.026-1.594-1.013-2.036l-.007-7.972C26.154 1.067 25.902.56 24.77.338h-7.174c-.958 0-1.438.37-1.95.97-.295.346-.384.57.223.685 1.19.226 1.861.997 2.04 2.19.285 1.908.265 3.824.1 5.74-.048.558-.144 1.116-.366 1.639-.347.82-.907.987-1.643.482-.666-.457-1.134-1.102-1.592-1.75-1.721-2.43-3.094-5.053-4.213-7.808-.324-.796-.882-1.278-1.725-1.292a176.06 176.06 0 00-6.217.002c-1.247.024-1.618.63-1.11 1.76 2.256 5.02 4.768 9.9 8.047 14.346 1.684 2.282 3.617 4.296 6.114 5.724 2.83 1.618 5.877 2.105 9.086 1.955 1.502-.07 1.954-.461 2.023-1.959.047-1.024.163-2.043.669-2.964.496-.903 1.247-1.075 2.113-.513.433.281.798.64 1.143 1.017.846.925 1.66 1.878 2.539 2.772 1.1 1.12 2.405 1.782 4.044 1.647l6.348.002c1.023-.067 1.553-1.321.966-2.463-.412-.8-.953-1.511-1.528-2.2z" fill="#78859D"/></svg>