<svg width="31" height="24" fill="none" xmlns="http://www.w3.org/2000/svg"><path d="M29.808 2.791C28.707 1.435 26.666.883 22.776.883H8.65c-3.982 0-6.054.589-7.154 2.032-1.07 1.408-1.07 3.48-1.07 6.35v5.47c0 5.559 1.272 8.383 8.224 8.383h14.125c3.374 0 5.245-.488 6.454-1.687 1.24-1.224 1.77-3.227 1.77-6.696v-5.47c0-3.026-.082-5.112-1.192-6.474zm-9.753 9.965l-6.415 3.465a.96.96 0 01-.967-.033 1.048 1.048 0 01-.351-.377 1.01 1.01 0 01-.125-.494V8.409c0-.356.18-.686.474-.87a.955.955 0 01.967-.034l6.415 3.443c.325.174.531.522.531.902.003.183-.045.363-.138.523a1.05 1.05 0 01-.391.383z" fill="#78859D"/></svg>