<svg width="36" height="30" fill="none" xmlns="http://www.w3.org/2000/svg"><path d="M35.382 3.891a.174.174 0 00-.205-.047 14.105 14.105 0 01-3.306 1.002 7.33 7.33 0 002.58-3.624.175.175 0 00-.256-.204 14.138 14.138 0 01-4.399 1.698A7.37 7.37 0 0024.508.47c-4.047 0-7.338 3.292-7.338 7.337 0 .49.047.974.141 1.445A20.233 20.233 0 012.904 1.845a.175.175 0 00-.287.022 7.332 7.332 0 00-.994 3.69 7.331 7.331 0 002.762 5.74 7.012 7.012 0 01-2.56-.827.175.175 0 00-.26.149v.094a7.362 7.362 0 005.157 7.01 7.046 7.046 0 01-2.44-.036.176.176 0 00-.2.225 7.336 7.336 0 006.37 5.07 14.103 14.103 0 01-8.406 2.742c-.564 0-1.132-.034-1.688-.1a.178.178 0 00-.186.115.175.175 0 00.07.207 20.474 20.474 0 0011.075 3.246c12.866 0 20.553-10.451 20.553-20.554 0-.282-.005-.562-.016-.84a14.634 14.634 0 003.54-3.697.175.175 0 00-.012-.21z" fill="#78859D"/></svg>