<svg width="16" height="18" fill="none" xmlns="http://www.w3.org/2000/svg"><path d="M7.602 9.608C3.41 9.608 0 13.018 0 17.209c0 .286.231.517.517.517h14.17a.517.517 0 00.516-.517c0-4.191-3.41-7.601-7.601-7.601zm-6.548 7.085a6.577 6.577 0 016.548-6.052 6.577 6.577 0 016.547 6.052H1.054zm6.424-7.768a4.468 4.468 0 004.462-4.462A4.468 4.468 0 007.478 0a4.468 4.468 0 00-4.463 4.463 4.468 4.468 0 004.463 4.462zm0-7.891a3.433 3.433 0 013.429 3.429 3.434 3.434 0 01-3.43 3.429 3.433 3.433 0 01-3.428-3.43 3.433 3.433 0 013.429-3.428z" fill="#000"/></svg>