<svg width="279" height="24" fill="none" xmlns="http://www.w3.org/2000/svg"><path d="M120.54 16.391L112.771.657h-2.633v21.857h2.568V6.254l7.834 16.062 7.834-16.063v16.26h2.633V.658h-2.633l-7.834 15.734z" fill="#000"/><path d="M120.54 22.91l-7.57-15.603v15.471h-3.094V.395h3.028l.066.132 7.57 15.273L128.177.33h3.028v22.382h-3.16V7.307L120.54 22.91zm8.098-.659h2.107V.857h-2.239L120.54 16.92 112.509.724l-2.173.066v21.396h2.041V6.188l.461-.131 7.637 15.668 7.57-15.668.461.131v16.063h.132zM18.166 17.31c-1.975 1.843-3.884 3.094-6.913 3.094-4.608 0-8.295-3.884-8.295-8.887 0-5.07 3.555-8.822 8.295-8.822 3.226 0 5.267 1.58 6.715 2.963l.066.065 1.777-1.909-.065-.066C17.836 1.971 15.466.26 11.253.26 5 .26.26 5.131.26 11.583c0 6.451 4.674 11.257 10.928 11.257 4.345 0 6.847-1.91 8.69-3.818l.066-.066-1.777-1.646z" fill="#000"/><path d="M11.192 23.107C4.806 23.107 0 18.17 0 11.587 0 5.003 4.872 0 11.257 0c4.345 0 6.715 1.712 8.624 3.555l.198.197-.132.264-1.975 2.106-.197-.197c-1.448-1.383-3.49-2.963-6.583-2.963-4.543 0-8.032 3.687-8.032 8.559 0 4.871 3.555 8.624 8.032 8.624 2.962 0 4.805-1.185 6.715-3.028l.197-.198.263.132 1.91 1.909-.198.197c-1.91 1.975-4.477 3.95-8.887 3.95zm.065-22.58C5.135.527.461 5.267.461 11.587c0 6.254 4.608 10.994 10.665 10.994 4.147 0 6.583-1.844 8.426-3.621l-1.382-1.383c-1.975 1.844-3.95 3.095-6.978 3.095-4.806 0-8.559-4.016-8.559-9.151 0-5.201 3.687-9.085 8.559-9.085 3.225 0 5.332 1.514 6.78 2.896l1.449-1.58C17.577 2.041 15.273.527 11.257.527zM47.132.26c-6.254 0-11.126 5.003-11.126 11.323 0 6.451 4.74 11.257 11.06 11.257 6.255 0 11.126-5.003 11.126-11.323 0-6.386-4.74-11.258-11.06-11.258zm0 20.144c-4.806 0-8.426-3.818-8.426-8.887 0-5.07 3.62-8.822 8.36-8.822 4.806 0 8.427 3.818 8.427 8.888 0 5.069-3.555 8.821-8.36 8.821z" fill="#000"/><path d="M47.07 23.107c-6.451 0-11.323-4.937-11.323-11.52C35.747 5.069 40.751 0 47.137 0c6.45 0 11.323 4.937 11.323 11.52 0 6.518-5.004 11.587-11.39 11.587zm.066-22.58c-6.122 0-10.862 4.871-10.862 11.06 0 6.254 4.674 10.994 10.797 10.994 6.122 0 10.862-4.872 10.862-11.06C57.999 5.267 53.325.527 47.136.527zm0 20.145c-4.937 0-8.69-3.95-8.69-9.151s3.687-9.085 8.625-9.085c4.937 0 8.69 3.95 8.69 9.15 0 5.201-3.687 9.086-8.625 9.086zm-.065-17.71c-4.609 0-8.098 3.687-8.098 8.559 0 4.937 3.49 8.624 8.163 8.624 4.609 0 8.098-3.687 8.098-8.558 0-4.938-3.49-8.625-8.163-8.625zm37.586 7.305c-4.871-1.053-5.793-2.238-5.793-4.148 0-2.04 1.843-3.423 4.477-3.423 2.238 0 4.213.724 6.188 2.304l.066.066 1.514-2.04-.066-.067C88.74 1.05 86.435.26 83.406.26c-4.147 0-7.175 2.568-7.175 6.057 0 3.423 2.04 5.2 7.307 6.386 4.674.987 5.53 2.172 5.53 4.081 0 2.173-1.909 3.621-4.74 3.621-2.83 0-4.937-.856-7.373-3.028l-.066-.066-1.646 1.91.066.065c2.633 2.37 5.464 3.49 8.888 3.49 4.476 0 7.439-2.503 7.439-6.255.131-3.226-2.041-5.135-6.979-6.254z" fill="#000"/><path d="M84.266 23.107c-3.49 0-6.32-1.119-9.085-3.555l-.197-.131.065-.264 1.778-2.172.197.197c2.436 2.173 4.477 3.029 7.242 3.029 2.7 0 4.477-1.383 4.477-3.358 0-1.711-.856-2.83-5.333-3.818-5.398-1.185-7.505-3.028-7.505-6.65 0-3.62 3.16-6.32 7.44-6.32 3.094 0 5.398.79 7.834 2.766l.197.132-.066.263-1.646 2.238-.197-.132c-1.975-1.645-3.884-2.37-6.123-2.37-2.501 0-4.279 1.317-4.279 3.16 0 1.778.856 2.897 5.596 3.885 5.135 1.119 7.308 3.094 7.308 6.517.065 3.95-3.095 6.583-7.703 6.583zm-8.558-3.884c2.633 2.304 5.332 3.292 8.624 3.292 4.279 0 7.242-2.436 7.242-5.99 0-3.16-2.041-4.938-6.913-5.992-5.07-1.119-5.99-2.37-5.99-4.41 0-2.173 1.974-3.687 4.74-3.687 2.303 0 4.278.724 6.188 2.304l1.25-1.646C88.545 1.317 86.373.593 83.476.593c-4.016 0-6.912 2.435-6.912 5.793 0 3.291 1.975 5.003 7.11 6.122 4.805 1.054 5.727 2.304 5.727 4.345 0 2.304-1.975 3.884-5.003 3.884-2.831 0-5.004-.855-7.374-3.028l-1.316 1.514zm78.008-6.521h11.85v-2.436h-11.85V3.024h13.232V.654h-15.799v21.857h15.931v-2.436h-13.364v-7.373z" fill="#000"/><path d="M167.347 22.778h-16.458V.395h16.327v2.897h-13.167v6.715h11.784v2.896h-11.784v6.913h13.364v2.962h-.066zm-15.997-.526h15.471v-1.91h-13.364v-7.9h11.784v-1.909h-11.784V2.831h13.166V.92H151.35v21.33zM194.862.654h-7.571v21.857h7.571c6.715 0 11.586-4.608 11.586-10.994-.066-6.32-4.937-10.863-11.586-10.863zm-5.004 2.436h4.938c5.201 0 8.887 3.49 8.887 8.493s-3.621 8.492-8.887 8.492h-4.938V3.09z" fill="#000"/><path d="M194.865 22.778h-7.834V.395h7.834c6.847 0 11.85 4.674 11.85 11.191-.066 6.452-5.003 11.192-11.85 11.192zm-7.373-.526h7.307c6.584 0 11.324-4.477 11.324-10.731 0-6.189-4.74-10.665-11.324-10.665h-7.307V22.25zm7.373-1.91h-5.201V2.831h5.201c5.333 0 9.085 3.62 9.085 8.755 0 5.135-3.752 8.756-9.085 8.756zm-4.74-.526h4.74c5.069 0 8.624-3.358 8.624-8.23 0-4.871-3.555-8.294-8.624-8.294h-4.74v16.524zM229.69.658h-2.633v21.856h2.633V.658z" fill="#000"/><path d="M229.889 22.778h-3.16V.395h3.16v22.383zm-2.567-.526h2.106V.855h-2.106V22.25zm33.704-10.93L269.124.657h-3.094l-6.518 8.756-6.583-8.756h-3.094l8.031 10.665-8.36 11.192h3.028l6.847-9.283 6.846 9.217.066.066h3.094l-8.361-11.192z" fill="#000"/><path d="M269.915 22.778l-3.818-.131-6.649-9.02-6.649 9.02-3.753.131 8.558-11.389L249.375.395h3.621l6.583 8.624 6.32-8.558 3.753-.132-8.229 10.928 8.492 11.521zm-10.533-9.94l7.044 9.48 2.436-.066-8.163-10.929 7.9-10.467h-2.568l-6.517 8.953-6.781-9.085-2.436.066 7.9 10.467-8.163 10.929h2.501l6.847-9.349zm16.59 3.62c1.646 0 3.028 1.317 3.028 2.963a3.02 3.02 0 01-3.028 3.028 3.02 3.02 0 01-3.029-3.028c0-1.646 1.383-2.963 3.029-2.963zm0 5.596c1.382 0 2.436-1.12 2.436-2.567 0-1.449-1.054-2.568-2.436-2.568-1.383 0-2.502 1.12-2.502 2.567.066 1.449 1.119 2.568 2.502 2.568zm-1.185-4.345h1.382c.856 0 1.251.33 1.251.988 0 .658-.395.921-.922.987l.988 1.58h-.593l-.921-1.514h-.593v1.514h-.526v-3.555h-.066zm.592 1.58h.593c.461 0 .921 0 .921-.593 0-.46-.395-.526-.79-.526h-.724v1.119z" fill="#000"/></svg>