<svg width="19" height="19" viewBox="0 0 19 19" fill="none" xmlns="http://www.w3.org/2000/svg">
<path d="M5.42857 0H13.5714C15.0112 0 16.392 0.571937 17.41 1.58999C18.4281 2.60805 19 3.98882 19 5.42857V13.5714C19 15.0112 18.4281 16.392 17.41 17.41C16.392 18.4281 15.0112 19 13.5714 19H5.42857C3.98882 19 2.60805 18.4281 1.58999 17.41C0.571937 16.392 0 15.0112 0 13.5714V5.42857C0 3.98882 0.571937 2.60805 1.58999 1.58999C2.60805 0.571937 3.98882 0 5.42857 0ZM9.5 13.5714C10.5798 13.5714 11.6154 13.1425 12.3789 12.3789C13.1425 11.6154 13.5714 10.5798 13.5714 9.5C13.5714 8.42019 13.1425 7.38461 12.3789 6.62107C11.6154 5.85752 10.5798 5.42857 9.5 5.42857C8.42019 5.42857 7.38461 5.85752 6.62107 6.62107C5.85752 7.38461 5.42857 8.42019 5.42857 9.5C5.42857 10.5798 5.85752 11.6154 6.62107 12.3789C7.38461 13.1425 8.42019 13.5714 9.5 13.5714ZM14.174 6.03114C14.3358 6.03657 14.4969 6.0094 14.648 5.95124C14.799 5.89309 14.9368 5.80514 15.0532 5.69263C15.1695 5.58012 15.262 5.44536 15.3252 5.29636C15.3884 5.14736 15.421 4.98717 15.421 4.82532C15.421 4.66348 15.3884 4.50328 15.3252 4.35428C15.262 4.20528 15.1695 4.07052 15.0532 3.95801C14.9368 3.8455 14.799 3.75756 14.648 3.6994C14.4969 3.64125 14.3358 3.61407 14.174 3.6195C13.8612 3.63 13.5647 3.76163 13.3471 3.98662C13.1296 4.21161 13.008 4.51234 13.008 4.82532C13.008 5.1383 13.1296 5.43903 13.3471 5.66402C13.5647 5.88901 13.8612 6.02065 14.174 6.03114Z" fill="white"/>
</svg>
