<svg width="26" height="19" fill="none" xmlns="http://www.w3.org/2000/svg"><path d="M0 9.232c.15.386.44.508.841.508 5.718-.007 11.436 0 17.154-.007.19 0 .292.034.366.238a2.565 2.565 0 002.429 1.71 2.593 2.593 0 002.455-1.717c.027-.068.054-.142.082-.224.658 0 1.309.007 1.96 0 .55-.007.875-.502.63-.956-.142-.258-.372-.353-.657-.353h-1.933c-.061-.163-.109-.312-.184-.454-.529-1.011-1.356-1.52-2.502-1.486-.997.034-1.92.712-2.266 1.682-.075.204-.17.258-.373.258-5.718-.007-11.436 0-17.154-.007-.4 0-.692.122-.841.51A4.283 4.283 0 000 9.231zm22.092-.163c0 .726-.583 1.309-1.302 1.309a1.298 1.298 0 01.014-2.598c.712 0 1.288.577 1.288 1.289zM0 2.733c.15.387.44.51.841.51 3.12-.008 6.24 0 9.367-.008.197 0 .285.041.36.245.366 1.037 1.336 1.702 2.435 1.702a2.546 2.546 0 002.428-1.702c.075-.204.17-.238.36-.238 3.14.007 6.274.007 9.415.007.576 0 .929-.414.739-.889-.116-.298-.353-.42-.658-.42h-1.75c-2.591 0-5.175 0-7.767.007-.196 0-.27-.061-.339-.238A2.565 2.565 0 0013.003 0a2.561 2.561 0 00-2.435 1.703c-.068.197-.163.245-.36.245-3.12-.007-6.24 0-9.367-.007-.4 0-.692.122-.841.509v.284zm14.299-.162a1.309 1.309 0 01-1.282 1.309c-.713.013-1.31-.577-1.323-1.296-.007-.705.57-1.289 1.282-1.309a1.306 1.306 0 011.322 1.296zM0 15.73c.15.386.44.515.841.508.61-.013 1.214-.006 1.798-.006.149.291.257.583.434.827.603.841 1.444 1.221 2.462 1.092 1.024-.136 1.736-.719 2.103-1.689.067-.183.149-.237.339-.237 5.69.007 11.388.007 17.08.007.142 0 .291 0 .427-.027a.633.633 0 00.508-.638.636.636 0 00-.508-.617c-.123-.027-.251-.027-.38-.027H7.997c-.203 0-.305-.048-.38-.258a2.554 2.554 0 00-2.414-1.69 2.58 2.58 0 00-2.442 1.697c-.027.08-.061.155-.089.244-.61 0-1.22.013-1.83-.007-.401-.014-.693.122-.842.509v.312zm6.498-.15a1.307 1.307 0 01-1.289 1.296 1.3 1.3 0 01-1.302-1.31 1.3 1.3 0 011.289-1.295c.712 0 1.309.59 1.302 1.31z" fill="#fff"/></svg>