<svg width="74" height="75" fill="none" xmlns="http://www.w3.org/2000/svg"><path d="M11.094 63.28h0c6.853 6.933 15.95 10.762 25.619 10.762 9.67 0 18.766-3.83 25.619-10.762l.001-.001c6.825-6.96 10.593-16.194 10.593-26.008 0-9.84-3.767-19.076-10.594-26.009h0C55.479 4.329 46.382.5 36.713.5c-9.695 0-18.793 3.801-25.62 10.763C4.268 18.223.5 27.457.5 37.271c0 9.84 3.767 19.076 10.594 26.009zM1.796 37.27c0-9.47 3.639-18.371 10.226-25.088C18.608 5.493 27.395 1.8 36.713 1.8c9.319 0 18.078 3.666 24.691 10.382C67.991 18.873 71.63 27.8 71.63 37.27s-3.64 18.4-10.226 25.089c-6.586 6.69-15.373 10.382-24.691 10.382-9.319 0-18.079-3.666-24.691-10.382C5.435 55.67 1.796 46.742 1.796 37.271z" fill="#fff" stroke="#fff"/><path d="M31.111 46.524v.923l.773-.504 14.213-9.267.643-.419-.644-.419L31.884 27.6l-.773-.502v19.427z" fill="#fff" stroke="#fff"/></svg>