<svg width="260" height="264" fill="none" xmlns="http://www.w3.org/2000/svg"><path d="M129.804 263.664c-34.654 0-67.251-13.72-91.822-38.575C13.509 200.234 0 167.127 0 131.832 0 96.637 13.509 63.53 37.982 38.575 62.455 13.621 95.052 0 129.804 0c34.654 0 67.251 13.72 91.822 38.575 24.473 24.856 37.982 57.963 37.982 93.257 0 35.195-13.509 68.302-37.982 93.257-24.571 24.855-57.168 38.575-91.822 38.575zm0-262.57c-34.36 0-66.762 13.62-91.039 38.277C14.488 64.126 1.077 96.935 1.077 131.832s13.41 67.805 37.688 92.462c24.375 24.755 56.68 38.277 91.039 38.277 34.36 0 66.762-13.621 91.039-38.277 24.277-24.657 37.688-57.565 37.688-92.462 0-34.897-13.411-67.805-37.688-92.461-24.375-24.756-56.679-38.277-91.039-38.277z" fill="#fff"/><path d="M111.261 165.463V98.202l51.656 33.581-51.656 33.68z" fill="#fff"/></svg>