<svg width="33" height="24" fill="none" xmlns="http://www.w3.org/2000/svg"><path d="M13.866.426C7.539 2.08.725 6.46.725 13.664c0 6.425 5.159 10.221 9.442 10.221h.097c1.85 0 4.478-1.363 4.478-3.894 0-1.46-.779-2.141-1.363-2.238-3.407-.584-6.23-2.823-6.23-6.328 0-3.893 2.92-6.23 7.788-8.371L13.866.426zm17.522 0C25.06 2.08 18.246 6.46 18.246 13.664c0 6.425 5.257 10.221 9.54 10.221h.097c1.85 0 4.38-1.363 4.38-3.894 0-1.46-.68-2.141-1.265-2.238-3.504-.584-6.327-2.823-6.327-6.328 0-3.893 2.92-6.23 7.787-8.371L31.388.426z" fill="#fff"/></svg>