<svg width="33" height="24" fill="none" xmlns="http://www.w3.org/2000/svg"><path d="M5.276.087C3.426.087.896 1.352.896 3.98c0 1.362.778 2.141 1.265 2.239 3.504.584 6.327 2.822 6.327 6.23 0 3.99-2.92 6.424-7.788 8.468l.974 2.726c6.425-1.655 13.239-6.133 13.239-13.336 0-6.424-5.257-10.22-9.637-10.22zm17.813 0c-1.85 0-4.38 1.265-4.38 3.894 0 1.362.681 2.141 1.265 2.239 3.407.584 6.23 2.822 6.23 6.23 0 3.99-2.92 6.424-7.69 8.468l.974 2.726c6.327-1.655 13.238-6.133 13.238-13.336C32.726 3.883 27.47.087 23.09.087z" fill="#fff"/></svg>