<svg width="22" height="16" fill="none" xmlns="http://www.w3.org/2000/svg"><path d="M21.142 1.373C20.35.397 18.882 0 16.082 0H5.918C3.053 0 1.562.424.77 1.463 0 2.476 0 3.967 0 6.032v3.936C0 13.968.916 16 5.918 16h10.164c2.428 0 3.774-.35 4.645-1.213.892-.882 1.273-2.323 1.273-4.819V6.032c0-2.177-.06-3.679-.858-4.659zm-7.018 7.171l-4.616 2.493a.69.69 0 01-.696-.024.754.754 0 01-.253-.271.727.727 0 01-.089-.355V5.416a.74.74 0 01.341-.627.687.687 0 01.696-.024l4.616 2.478a.736.736 0 01.382.649.724.724 0 01-.1.376.752.752 0 01-.281.276z" fill="#fff"/></svg>