<svg width="118" height="134" fill="none" xmlns="http://www.w3.org/2000/svg"><g filter="url(#filter0_d_703:2159)"><path d="M58.572 127.948L4 96.506V33.442L58.572 2l54.571 31.442v63.064l-54.572 31.442zM5.446 95.603l53.126 30.719 53.125-30.72V34.346L58.571 3.626 5.447 34.346v61.257z" fill="url(#paint0_angular_703:2159)"/></g><path d="M68.338 38L29.072 61.536l.438.73 39.266-23.535-.438-.731zm-.072 9.995L29 71.531l.438.73 39.266-23.535-.438-.73zm16.912.036L47.742 69.423l.422.739L85.6 48.77l-.422-.739zM81.45 61.31L42.185 84.848l.438.73 39.266-23.536-.437-.73zm-.126 9.904L42.058 94.75l.438.73 39.266-23.535-.438-.73zm12.931 3.479L58.205 96.14l.435.732 36.05-21.448-.435-.732z" fill="#78859D" stroke="#78859D" stroke-width="2"/><defs><radialGradient id="paint0_angular_703:2159" cx="0" cy="0" r="1" gradientUnits="userSpaceOnUse" gradientTransform="matrix(-83.27963 49.16711 -70.62932 -119.63249 142.11 103.701)"><stop offset=".011" stop-color="#E8EACD"/><stop offset=".07" stop-color="#D1CDD5"/><stop offset=".179" stop-color="#B8E4D8"/><stop offset=".241" stop-color="#B9DAE5"/><stop offset=".311" stop-color="#BBCDF6"/><stop offset=".8" stop-color="#DCCFDF"/></radialGradient><filter id="filter0_d_703:2159" x="0" y="0" width="117.143" height="133.948" filterUnits="userSpaceOnUse" color-interpolation-filters="sRGB"><feFlood flood-opacity="0" result="BackgroundImageFix"/><feColorMatrix in="SourceAlpha" values="0 0 0 0 0 0 0 0 0 0 0 0 0 0 0 0 0 0 127 0" result="hardAlpha"/><feOffset dy="2"/><feGaussianBlur stdDeviation="2"/><feComposite in2="hardAlpha" operator="out"/><feColorMatrix values="0 0 0 0 0 0 0 0 0 0 0 0 0 0 0 0 0 0 0.1 0"/><feBlend in2="BackgroundImageFix" result="effect1_dropShadow_703:2159"/><feBlend in="SourceGraphic" in2="effect1_dropShadow_703:2159" result="shape"/></filter></defs></svg>