<svg width="118" height="135" fill="none" xmlns="http://www.w3.org/2000/svg"><g filter="url(#filter0_d_703:2157)"><path d="M58.572 128.014L4 96.572V33.507L58.572 2.065l54.571 31.442v63.065l-54.572 31.442zM5.446 95.668l53.126 30.719 53.125-30.719V34.411L58.571 3.69 5.447 34.412v61.257z" fill="url(#paint0_angular_703:2157)"/></g><path d="M84.519 107.153l-13.247-7.545V84.349l13.246-7.545 13.247 7.545v15.259l-13.246 7.545zM72.78 98.769l11.737 6.875 11.738-6.875V85.188l-11.737-6.875-11.738 6.875v13.581zM59.367 89.38L46.12 81.835V66.576l13.246-7.545 13.246 7.545v15.259L59.367 89.38zM47.63 80.996l11.737 6.875 11.737-6.875V67.415L59.367 60.54 47.63 67.415v13.581zm17.102-20.959L51.486 52.49V37.233l13.246-7.545 13.247 7.545v15.258l-13.247 7.546zm-11.905-8.384l11.738 6.875 11.737-6.875V38.071l-11.737-6.874-11.738 6.874v13.582z" fill="#78859D" stroke="#78859D"/><path d="M39.246 53.833L26 46.287V31.03l13.246-7.546 13.247 7.546v15.258l-13.247 7.546zm-11.905-8.384l11.738 6.875 11.737-6.875V31.867l-11.737-6.874-11.738 6.874V45.45z" fill="#78859D" stroke="#78859D"/><defs><radialGradient id="paint0_angular_703:2157" cx="0" cy="0" r="1" gradientUnits="userSpaceOnUse" gradientTransform="matrix(-83.27963 49.16711 -70.62932 -119.63249 142.11 103.767)"><stop offset=".011" stop-color="#E8EACD"/><stop offset=".07" stop-color="#D1CDD5"/><stop offset=".179" stop-color="#B8E4D8"/><stop offset=".241" stop-color="#B9DAE5"/><stop offset=".311" stop-color="#BBCDF6"/><stop offset=".8" stop-color="#DCCFDF"/></radialGradient><filter id="filter0_d_703:2157" x="0" y=".065" width="117.143" height="133.948" filterUnits="userSpaceOnUse" color-interpolation-filters="sRGB"><feFlood flood-opacity="0" result="BackgroundImageFix"/><feColorMatrix in="SourceAlpha" values="0 0 0 0 0 0 0 0 0 0 0 0 0 0 0 0 0 0 127 0" result="hardAlpha"/><feOffset dy="2"/><feGaussianBlur stdDeviation="2"/><feComposite in2="hardAlpha" operator="out"/><feColorMatrix values="0 0 0 0 0 0 0 0 0 0 0 0 0 0 0 0 0 0 0.1 0"/><feBlend in2="BackgroundImageFix" result="effect1_dropShadow_703:2157"/><feBlend in="SourceGraphic" in2="effect1_dropShadow_703:2157" result="shape"/></filter></defs></svg>