<svg width="118" height="134" fill="none" xmlns="http://www.w3.org/2000/svg"><g filter="url(#filter0_d_703:2156)"><path d="M58.572 127.948L4 96.506V33.442L58.572 2l54.571 31.442v63.064l-54.572 31.442zM5.446 95.603l53.126 30.719 53.125-30.72V34.346L58.571 3.626 5.447 34.346v61.257z" fill="url(#paint0_angular_703:2156)"/></g><path d="M42.53 60.845h0l16.033-25.431s0 0 0 0c.36-.572.984-.917 1.652-.917.67 0 1.293.346 1.653.917l16.033 25.431a21.43 21.43 0 013.156 13.685 21.34 21.34 0 01-6.017 12.668h0c-3.96 4-9.225 6.203-14.825 6.203s-10.864-2.202-14.824-6.203a21.346 21.346 0 01-6.017-12.668 21.426 21.426 0 013.157-13.685zm17.897-20.344l-.212-.336-.211.336-14.17 22.475.212.133-.211-.133c-4.324 6.858-3.368 15.667 2.325 21.418l.178-.176-.178.176c6.647 6.714 17.464 6.714 24.11 0l-.177-.176.178.176c5.693-5.75 6.649-14.56 2.325-21.418L60.426 40.5z" fill="#78859D" stroke="#fff" stroke-width=".5"/><defs><radialGradient id="paint0_angular_703:2156" cx="0" cy="0" r="1" gradientUnits="userSpaceOnUse" gradientTransform="matrix(-83.27963 49.16711 -70.62932 -119.63249 142.11 103.701)"><stop offset=".011" stop-color="#E8EACD"/><stop offset=".07" stop-color="#D1CDD5"/><stop offset=".179" stop-color="#B8E4D8"/><stop offset=".241" stop-color="#B9DAE5"/><stop offset=".311" stop-color="#BBCDF6"/><stop offset=".8" stop-color="#DCCFDF"/></radialGradient><filter id="filter0_d_703:2156" x="0" y="0" width="117.143" height="133.948" filterUnits="userSpaceOnUse" color-interpolation-filters="sRGB"><feFlood flood-opacity="0" result="BackgroundImageFix"/><feColorMatrix in="SourceAlpha" values="0 0 0 0 0 0 0 0 0 0 0 0 0 0 0 0 0 0 127 0" result="hardAlpha"/><feOffset dy="2"/><feGaussianBlur stdDeviation="2"/><feComposite in2="hardAlpha" operator="out"/><feColorMatrix values="0 0 0 0 0 0 0 0 0 0 0 0 0 0 0 0 0 0 0.1 0"/><feBlend in2="BackgroundImageFix" result="effect1_dropShadow_703:2156"/><feBlend in="SourceGraphic" in2="effect1_dropShadow_703:2156" result="shape"/></filter></defs></svg>