<svg width="118" height="134" fill="none" xmlns="http://www.w3.org/2000/svg"><g filter="url(#filter0_d_703:2161)"><path d="M58.572 127.948L4 96.506V33.442L58.572 2l54.571 31.442v63.064l-54.572 31.442zM5.446 95.603l53.126 30.719 53.125-30.72V34.346L58.571 3.626 5.447 34.346v61.257z" fill="url(#paint0_angular_703:2161)"/></g><path d="M89.019 48.942c.073.678.122 1.266.196 1.944.18.12.443.3.705.482.143.34.3.672.444 1.012-.687-.184-1.414-.45-2.087-.642-.043.02-.14-.035-.144.069-.742 1.268-1.404 2.702-2.24 3.81-.65.716-1.457 1.098-2.344 1.314-1.088.312-2.56-.111-3.319.859-.596.792-.375 3.234-.602 4.768-.033.117-.725-1.083-.865-1.118-.382-.023-.645.203-1.239-.23.152-.275.29-.544.442-.82-.219.919-2.914-2.797-.215 3.872-.904-.082-1.88-.129-2.88-.266l-.316-.666 1.817-.86c-.25-.493-.526-1.075-.777-1.568-.601 1.303-1.256 2.53-1.857 3.834-.123.262-.007 1.328-.316.862-1.963-2.84-1.644-.75-2.02-.164-.12.159-.253.324-.412.4-1.727 1.123-3.48 2.157-5.13 3.447-1.59 1.263-3.089 2.686-4.562 4.198-1.607 1.678-3.096 3.606-4.348 6.032.822-.389 1.895-.286 2.441-1.258.956-1.674 2.355-2.337 4.635-1.175.64.308.668-.826 1.115-1.038 1.667-.993 3.451-1.736 5.118-2.729 1.147-.747 2.254-1.577 3.269-2.567 1.014-.99 1.871-2.312 2.965-3.136.234-.213 1.035.733 1.6 1.178l-.026-.09c-.24 1.133-.427 2.342-.746 3.308-.221.615-2.018-2.508-1.986-1.097.095 3.928-2.738 2.01-3.066 5.12-.026.318-.422-.106-.54.052-.947 1.06-3.011-.205-3.273 2.263-.147 1.292-.148 2.82-.216 4.279-.186-.32-.373-.638-.599-1.041-.113-.761-.252-1.613-.33-2.187-1.212-.547-1.155-.166-.853 2.747.229 2.235-.374 2.826-1.848 1.69-.647-.508-.735.349-.938.852-.41 1.111-1.067 1.626-1.924 1.828-1.856.37-2.741 2.826-4.32 3.778-1.393.863-3.115 1.067-4.704 1.514-1.561.434-3.186.694-4.628 1.377-1.01.478-1.69 1.615-2.305 2.925l4.24-2.008c.245-.116.688.184 1.065.31l-.01-.096c.517 3.626-1.389 2.287-2.506 2.613-1.146.339-2.095 1.094-3.241 1.433-2.084.783-4.089 1.732-6.448 1.932-3.628.394-7.453.371-12.298-1.919-2.77-1.337-4.848-1.066-7.41-1.89-.756-.253-1.763-1-2.984-2.459-.786-.952-2.109-3.484-3.403-5.621.013-1.127.123-1.79.06-2.78-.236-3.148-1.043-7.35-.725-9.436.528-3.51 1.374-6.458 2.708-8.414 1.916-2.741 4.147-4.816 6.707-6.233 2.46-1.368 5.51-1.488 8.34-2.115 2.616-.627 5.429-.839 7.873-1.792 5.837-2.255 11.658-4.502 17.298-7.173 6.1-2.889 11.98-6.284 17.923-9.506 4.035-2.217 8.032-4.517 12.121-6.657a110.35 110.35 0 0110.085-4.47c-1.515.718-3.438.61-4.411 2.395-1.017 1.805-3.2 1.108-4.498 2.843.543.252.766.35 1.018.435.075.27.179.526.15.54-1.067.505-1.898 1.51-3.517.85-.616-.218-.604 1-.998 1.288-.552.363-1.261.393-1.867.68-.649.307-1.832-.253-1.657 1.498.2 2.248-.858 1.73-1.432 2.308-.761.666-1.734.923-2.535 1.506-.072.034.289.984.453 1.517-3.116-2.293-3.199 1.82-4.864 2.406.697.689 1.476 1.44 2.242 2.198 1.53-.011 3.007-.1 4.538-.111-1.023-1.452-1.878-2.473-2.18-2.33-.927.541-1.603 1.574-2.373 2.448-.084-.775-.42-2.042-.214-2.242.647-.611 1.544-.73 2.244-1.266.263-.226.369-.786.514-1.262l3.98-1.885c.12.25.237.5.41.825-1.102 1.03-2.228 1.972-3.329 3.002l.237.5 12.086-5.724a91.576 91.576 0 00-3.79 3.221c1.83-1.58 5.925 1.474 4.727-6.313l.753 1.477c-.102.456-.18 1.002-.281 1.458.079.166.143.34.222.506l2.827-1.339c-.08-.166-.144-.34-.222-.506-.281-.07-.601-.225-.897-.289-.724-2.611-.718-3.53.933-1.46.948 1.18 1.274.415 1.879.536-.236-.499-.498-1.088-.734-1.588l-1.068.506c.8-1.296-.404-6.634 2.463-4.121.012 1.217.142 2.276-.057 2.676-.203.504-.71.438-1.085.616l.63 1.331 7.976-3.777c.236.5.512 1.082.763 1.575-3.522 2.89-7.03 5.774-10.552 8.664l.197.416c.266.078.507.066.972.151-.092.553-.118.87-.183 1.106.079.166.157.332.29.575l.716-.95c.118.25.236.5.33.66l-1.544.73c.093.16-.014.007-.04-.083-.024-.09.004-.104-.02-.194-.036-.187-.086-.367-.286-1.087-.487.536-.86 1.018-1.271 1.417-.158-.333-.29-.576-.448-.909.026-.318.067-.643.096-1.064-1.894-2.77-2.496-2.588-1.919-.212.86 3.566.418 4.387-1.124 3.181-.166-.125-.267-.078-.392-.12-.245-.292-.503-.577-.855-1.021.307-.248.53-.557.794-.784-.04-.083-.04-.083-.093-.16l-4.961 2.35c.118.25.261.59.38.839.237.091.435.1.701.177.121.554.182.83.428 1.835a51.287 51.287 0 003.58-3.326zm-13.075 7.516c.158.333.301.672.498 1.088l3-1.42c-.588-.944-1.158-1.999-1.23-1.965-.386.081-1.238-.228-.866.818 1.1 3.146-.077 1.666-.398 1.92-.202.096-.669-.294-1.003-.441zm-9.96-4.554c.078.166.172.326.211.409l4.933-2.336c-.08-.166-.158-.333-.197-.416l-4.947 2.343zm18.394.662l-.71-1.498c-.894.424-1.788.847-2.643 1.354-.043.02.544 1.372.57 1.462l2.783-1.318zm-20 29.133c-.212-.41-.409-.825-.62-1.235-.805.687-1.624 1.38-2.429 2.068l.236.499 2.813-1.332zm17.837-33.814c2.195.387 2.842-.225 2.178-2.56-.73.958-1.481 1.72-2.178 2.56z" fill="#78859D"/><defs><radialGradient id="paint0_angular_703:2161" cx="0" cy="0" r="1" gradientUnits="userSpaceOnUse" gradientTransform="matrix(-83.27963 49.16711 -70.62932 -119.63249 142.11 103.701)"><stop offset=".011" stop-color="#E8EACD"/><stop offset=".07" stop-color="#D1CDD5"/><stop offset=".179" stop-color="#B8E4D8"/><stop offset=".241" stop-color="#B9DAE5"/><stop offset=".311" stop-color="#BBCDF6"/><stop offset=".8" stop-color="#DCCFDF"/></radialGradient><filter id="filter0_d_703:2161" x="0" y="0" width="117.143" height="133.948" filterUnits="userSpaceOnUse" color-interpolation-filters="sRGB"><feFlood flood-opacity="0" result="BackgroundImageFix"/><feColorMatrix in="SourceAlpha" values="0 0 0 0 0 0 0 0 0 0 0 0 0 0 0 0 0 0 127 0" result="hardAlpha"/><feOffset dy="2"/><feGaussianBlur stdDeviation="2"/><feComposite in2="hardAlpha" operator="out"/><feColorMatrix values="0 0 0 0 0 0 0 0 0 0 0 0 0 0 0 0 0 0 0.1 0"/><feBlend in2="BackgroundImageFix" result="effect1_dropShadow_703:2161"/><feBlend in="SourceGraphic" in2="effect1_dropShadow_703:2161" result="shape"/></filter></defs></svg>