<svg width="118" height="134" fill="none" xmlns="http://www.w3.org/2000/svg"><g filter="url(#filter0_d_703:2158)"><path d="M58.572 127.948L4 96.506V33.442L58.572 2l54.571 31.442v63.064l-54.572 31.442zM5.446 95.603l53.126 30.719 53.125-30.72V34.346L58.571 3.626 5.447 34.346v61.257z" fill="url(#paint0_angular_703:2158)"/></g><path d="M69.942 101.565c-9.156-.426-10.966-4.365-10.86-7.56.107-2.341 1.172-5.003 2.875-7.771a95.75 95.75 0 01-12.883.852c-6.707 0-10.86-1.597-12.456-4.685-1.49-2.981-.532-7.133 2.874-12.137h-.212c-5.217 0-8.199-1.171-9.05-3.514-3.3-9.156 30.024-32.792 31.408-33.75l.532.745c-.32.213-34.176 24.275-31.089 32.792.746 2.023 3.727 3.088 8.944 2.875.106-.107.106-.213.213-.32 8.517-11.817 28.107-25.445 37.902-23.955 6.282.959 7.027 3.94 7.027 5.537-.32 6.813-16.609 17.46-42.587 19.377-.745 0-1.384.106-2.023.106-2.555 3.62-4.897 8.411-3.194 11.818 1.384 2.768 5.324 4.152 11.712 4.152 5.003 0 9.475-.32 13.52-.958 5.857-8.517 17.462-17.035 23.85-17.035 1.49 0 2.555.213 3.407.746.851.532 1.277 1.277 1.277 2.235 0 4.366-9.795 12.138-28 14.906-1.917 2.768-3.088 5.536-3.195 7.879-.106 4.152 3.3 6.387 10.008 6.707v.958zm16.503-32.472c-5.856 0-16.822 7.985-22.678 15.97 17.46-2.875 26.404-10.328 26.404-13.948 0-.638-.32-1.064-.852-1.49-.532-.32-1.597-.532-2.874-.532zm-9.902-23.104c-9.901 0-27.256 12.457-35.347 23.423.426 0 .852 0 1.278-.107 25.552-1.916 41.522-12.03 41.841-18.525.107-2.342-2.13-4.046-6.281-4.684-.533-.107-.959-.107-1.49-.107z" fill="#78859D" stroke="#78859D" stroke-width="2"/><defs><radialGradient id="paint0_angular_703:2158" cx="0" cy="0" r="1" gradientUnits="userSpaceOnUse" gradientTransform="matrix(-83.27963 49.16711 -70.62932 -119.63249 142.11 103.701)"><stop offset=".011" stop-color="#E8EACD"/><stop offset=".07" stop-color="#D1CDD5"/><stop offset=".179" stop-color="#B8E4D8"/><stop offset=".241" stop-color="#B9DAE5"/><stop offset=".311" stop-color="#BBCDF6"/><stop offset=".8" stop-color="#DCCFDF"/></radialGradient><filter id="filter0_d_703:2158" x="0" y="0" width="117.143" height="133.948" filterUnits="userSpaceOnUse" color-interpolation-filters="sRGB"><feFlood flood-opacity="0" result="BackgroundImageFix"/><feColorMatrix in="SourceAlpha" values="0 0 0 0 0 0 0 0 0 0 0 0 0 0 0 0 0 0 127 0" result="hardAlpha"/><feOffset dy="2"/><feGaussianBlur stdDeviation="2"/><feComposite in2="hardAlpha" operator="out"/><feColorMatrix values="0 0 0 0 0 0 0 0 0 0 0 0 0 0 0 0 0 0 0.1 0"/><feBlend in2="BackgroundImageFix" result="effect1_dropShadow_703:2158"/><feBlend in="SourceGraphic" in2="effect1_dropShadow_703:2158" result="shape"/></filter></defs></svg>