<svg width="118" height="134" viewBox="0 0 118 134" fill="none" xmlns="http://www.w3.org/2000/svg">
<g filter="url(#filter0_d_703:2158)">
<path d="M58.5715 127.948L4 96.5063V33.4419L58.5715 2L113.143 33.4419V96.5063L58.5715 127.948ZM5.44558 95.6028L58.5715 126.322L111.697 95.6028V34.3454L58.5715 3.62629L5.44558 34.3454V95.6028Z" fill="url(#paint0_angular_703:2158)"/>
</g>
<path d="M69.9422 101.565C60.7859 101.139 58.976 97.2 59.0825 94.0059C59.1889 91.6636 60.2536 89.0019 61.9571 86.2338C58.0178 86.7661 53.7591 87.0855 49.0745 87.0855C42.3671 87.0855 38.2148 85.4885 36.6178 82.401C35.1273 79.4199 36.0855 75.2676 39.4925 70.2636C39.386 70.2636 39.386 70.2636 39.2795 70.2636C34.0626 70.2636 31.0815 69.0925 30.2298 66.7502C26.9293 57.594 60.2536 33.9582 61.6377 33L62.17 33.7453C61.8506 33.9582 27.9939 58.0199 31.0815 66.5373C31.8268 68.5602 34.8079 69.6249 40.0248 69.4119C40.1313 69.3055 40.1312 69.199 40.2377 69.0925C48.7551 57.2746 68.3452 43.6468 78.1402 45.1373C84.4218 46.0955 85.167 49.0766 85.167 50.6736C84.8476 57.4875 68.5581 68.1343 42.58 70.0507C41.8347 70.0507 41.1959 70.1572 40.5571 70.1572C38.0019 73.7771 35.6596 78.5681 37.3631 81.9751C38.7472 84.7432 42.6865 86.1273 49.0745 86.1273C54.0785 86.1273 58.5501 85.8079 62.5959 85.1691C68.4516 76.6517 80.0566 68.1343 86.4446 68.1343C87.9352 68.1343 88.9999 68.3472 89.8516 68.8796C90.7033 69.4119 91.1292 70.1572 91.1292 71.1154C91.1292 75.4806 81.3342 83.2527 63.1282 86.0209C61.2118 88.789 60.0406 91.5572 59.9342 93.8995C59.8277 98.0517 63.2347 100.287 69.9422 100.607V101.565ZM86.4446 69.0925C80.5889 69.0925 69.6228 77.0776 63.7671 85.0627C81.2277 82.188 90.171 74.7353 90.171 71.1154C90.171 70.4766 89.8516 70.0507 89.3193 69.6249C88.7869 69.3055 87.7222 69.0925 86.4446 69.0925ZM76.5432 45.9891C66.6417 45.9891 49.2875 58.4458 41.1959 69.4119C41.6218 69.4119 42.0477 69.4119 42.4735 69.3054C68.0258 67.389 83.9959 57.2746 84.3153 50.7801C84.4217 48.4378 82.1859 46.7343 78.0337 46.0955C77.5013 45.9891 77.0755 45.9891 76.5432 45.9891Z" fill="#78859D" stroke="#78859D" stroke-width="2"/>
<defs>
<filter id="filter0_d_703:2158" x="0" y="0" width="117.143" height="133.948" filterUnits="userSpaceOnUse" color-interpolation-filters="sRGB">
<feFlood flood-opacity="0" result="BackgroundImageFix"/>
<feColorMatrix in="SourceAlpha" type="matrix" values="0 0 0 0 0 0 0 0 0 0 0 0 0 0 0 0 0 0 127 0" result="hardAlpha"/>
<feOffset dy="2"/>
<feGaussianBlur stdDeviation="2"/>
<feComposite in2="hardAlpha" operator="out"/>
<feColorMatrix type="matrix" values="0 0 0 0 0 0 0 0 0 0 0 0 0 0 0 0 0 0 0.1 0"/>
<feBlend mode="normal" in2="BackgroundImageFix" result="effect1_dropShadow_703:2158"/>
<feBlend mode="normal" in="SourceGraphic" in2="effect1_dropShadow_703:2158" result="shape"/>
</filter>
<radialGradient id="paint0_angular_703:2158" cx="0" cy="0" r="1" gradientUnits="userSpaceOnUse" gradientTransform="translate(142.11 103.701) rotate(149.443) scale(96.7104 138.926)">
<stop offset="0.0112334" stop-color="#E8EACD"/>
<stop offset="0.0701059" stop-color="#D1CDD5"/>
<stop offset="0.178522" stop-color="#B8E4D8"/>
<stop offset="0.240926" stop-color="#B9DAE5"/>
<stop offset="0.311261" stop-color="#BBCDF6"/>
<stop offset="0.800112" stop-color="#DCCFDF"/>
</radialGradient>
</defs>
</svg>
