<svg width="110" height="126" fill="none" xmlns="http://www.w3.org/2000/svg"><path d="M54.572 125.948L0 94.506V31.442L54.572 0l54.571 31.442v63.064l-54.572 31.442zM1.446 93.603l53.126 30.719 53.125-30.72V32.346L54.571 1.626 1.447 32.346v61.257z" fill="url(#paint0_angular_703:2160)"/><path d="M56.579 96.938l-.852-.213c.107-.213 6.388-22.57-3.194-41.096-8.41-16.29-27.575-12.35-27.788-12.35l-.213-.852c.213 0 20.016-4.046 28.747 12.776 9.795 18.845 3.406 41.522 3.3 41.735z" fill="#78859D" stroke="#78859D" stroke-width="2"/><path d="M56.792 98.216c-.107-.213-6.495-22.89 3.194-41.735 8.73-16.822 28.533-12.883 28.746-12.777l-.213.852c-.213 0-19.377-3.94-27.788 12.35-9.475 18.526-3.194 40.777-3.194 41.097l-.745.213z" fill="#78859D" stroke="#78859D" stroke-width="2"/><path d="M56.898 98.535c0-.106-.425-13.308 3.833-22.252 8.092-17.14 28.534-12.882 28.747-12.776l-.213.852c-.213 0-20.016-4.152-27.788 12.35-4.153 8.73-3.727 21.72-3.727 21.826h-.852z" fill="#78859D" stroke="#78859D" stroke-width="2"/><path d="M56.579 98.535h-.852c0-.106.426-13.095-3.726-21.826-7.772-16.502-27.575-12.35-27.788-12.35L24 63.507c.213 0 20.655-4.365 28.746 12.776 4.259 8.944 3.833 22.04 3.833 22.252z" fill="#78859D" stroke="#78859D" stroke-width="2"/><defs><radialGradient id="paint0_angular_703:2160" cx="0" cy="0" r="1" gradientUnits="userSpaceOnUse" gradientTransform="matrix(-83.27963 49.16711 -70.62932 -119.63249 138.11 101.701)"><stop offset=".011" stop-color="#E8EACD"/><stop offset=".07" stop-color="#D1CDD5"/><stop offset=".179" stop-color="#B8E4D8"/><stop offset=".241" stop-color="#B9DAE5"/><stop offset=".311" stop-color="#BBCDF6"/><stop offset=".8" stop-color="#DCCFDF"/></radialGradient></defs></svg>