<svg width="118" height="134" viewBox="0 0 118 134" fill="none" xmlns="http://www.w3.org/2000/svg">
<g filter="url(#filter0_d_703:2161)">
<path d="M58.5715 127.948L4 96.5063V33.4419L58.5715 2L113.143 33.4419V96.5063L58.5715 127.948ZM5.44558 95.6028L58.5715 126.322L111.697 95.6028V34.3454L58.5715 3.62629L5.44558 34.3454V95.6028Z" fill="url(#paint0_angular_703:2161)"/>
</g>
<path d="M89.0186 48.9421C89.0925 49.6203 89.1415 50.2084 89.2154 50.8865C89.3952 51.0051 89.6576 51.1865 89.9201 51.3678C90.0633 51.7075 90.2209 52.0404 90.3641 52.3801C89.6767 52.1962 88.9499 51.9291 88.2769 51.7384C88.2336 51.7589 88.1365 51.703 88.1326 51.8067C87.3912 53.0747 86.7285 54.5092 85.8938 55.6176C85.2437 56.333 84.436 56.7154 83.5495 56.9314C82.4611 57.2431 80.9892 56.8195 80.2305 57.79C79.6342 58.5818 79.855 61.0242 79.6278 62.558C79.5951 62.6754 78.903 61.4749 78.7627 61.4395C78.381 61.4165 78.1175 61.6432 77.5244 61.2109C77.6763 60.9352 77.8139 60.6663 77.9658 60.3906C77.7474 61.309 75.0521 57.5934 77.7508 64.2619C76.847 64.1804 75.8712 64.1332 74.8703 63.9959C74.7521 63.7462 74.6733 63.5798 74.555 63.3301C75.1608 63.0433 75.7666 62.7564 76.3723 62.4696C76.1215 61.9771 75.8456 61.3946 75.5948 60.9021C74.9936 62.2055 74.3387 63.4326 73.7376 64.736C73.6145 64.998 73.7306 66.0637 73.4221 65.5985C71.4593 62.7586 71.7781 64.8489 71.4021 65.4344C71.2829 65.5928 71.1492 65.758 70.9905 65.8331C69.2626 66.957 67.5097 67.9908 65.8606 69.2811C64.2692 70.5441 62.771 71.9667 61.2978 73.4793C59.691 75.1571 58.2023 77.0846 56.9501 79.5113C57.7722 79.122 58.8452 79.2252 59.3915 78.2534C60.3465 76.5786 61.7455 75.9161 64.0259 77.0776C64.6662 77.3856 64.6942 76.2517 65.1413 76.04C66.8077 75.0471 68.5923 74.3039 70.2586 73.3111C71.4058 72.5641 72.5135 71.7339 73.528 70.7441C74.5425 69.7543 75.3994 68.4317 76.4927 67.6083C76.7273 67.3953 77.528 68.3405 78.0923 68.7865L78.0674 68.6964C77.8268 69.8291 77.6401 71.0382 77.3207 72.0044C77.0995 72.6186 75.303 69.4961 75.3355 70.907C75.4301 74.8354 72.597 72.9169 72.2686 76.0268C72.2426 76.3448 71.8475 75.9206 71.7283 76.079C70.782 77.1383 68.718 75.8744 68.4561 78.3416C68.3088 79.6339 68.3085 81.1622 68.24 82.6209C68.0535 82.3017 67.8671 81.9825 67.6412 81.58C67.5279 80.8187 67.3895 79.9673 67.3118 79.3929C66.0995 78.8463 66.1561 79.227 66.4585 82.1401C66.687 84.3751 66.0841 84.9662 64.6103 83.8303C63.9633 83.3216 63.8747 84.1786 63.6718 84.6822C63.262 85.7932 62.6053 86.3079 61.7476 86.5103C59.892 86.8797 59.007 89.3362 57.4272 90.2881C56.0349 91.1512 54.3129 91.3554 52.7235 91.8024C51.163 92.2357 49.5381 92.4958 48.0958 93.1788C47.0862 93.6568 46.4063 94.7938 45.7908 96.1041C47.2042 95.4348 48.6176 94.7654 50.0311 94.0961C50.2763 93.98 50.7185 94.28 51.0963 94.4067L51.0858 94.3098C51.6025 97.9365 49.6971 96.5974 48.5798 96.9228C47.4337 97.2617 46.4846 98.0168 45.3385 98.3558C43.2549 99.1387 41.2501 100.088 38.8907 100.288C35.263 100.682 31.4384 100.659 26.593 98.3693C23.8233 97.0321 21.7446 97.3033 19.1824 96.479C18.4267 96.2256 17.4202 95.4797 16.1994 94.0203C15.4131 93.0682 14.0905 90.5363 12.7958 88.3988C12.8094 87.2717 12.9191 86.6085 12.8568 85.6192C12.6198 82.4714 11.8129 78.269 12.1314 76.1825C12.6589 72.6727 13.5054 69.7249 14.8393 67.7689C16.7549 65.0279 18.9858 62.9527 21.5464 61.5364C24.0061 60.1679 27.0568 60.0477 29.8855 59.4213C32.5017 58.7937 35.3149 58.5821 37.7591 57.6285C43.5955 55.3741 49.4175 53.1265 55.0569 50.4561C61.1578 47.567 67.0366 44.1719 72.9799 40.95C77.0155 38.7333 81.0117 36.4335 85.1011 34.2932C88.379 32.6391 91.7356 31.1515 95.1856 29.8234C93.6711 30.5405 91.7482 30.4323 90.775 32.2176C89.7584 34.0234 87.5741 33.3259 86.2768 35.0608C86.82 35.313 87.043 35.4111 87.2949 35.4956C87.3699 35.7657 87.4737 36.0222 87.4448 36.0359C86.3775 36.5413 85.5467 37.546 83.9277 36.8864C83.3124 36.6684 83.3237 37.8855 82.9305 38.1736C82.3785 38.5369 81.669 38.5672 81.0632 38.8541C80.4142 39.1614 79.2307 38.6012 79.4064 40.3518C79.606 42.6005 78.5485 42.0825 77.9744 42.6599C77.2128 43.3262 76.2398 43.5832 75.4388 44.1663C75.3667 44.2004 75.728 45.15 75.8924 45.6834C72.7757 43.3898 72.6933 47.5039 71.028 48.0888C71.7249 48.7775 72.5045 49.529 73.2697 50.2873C74.8004 50.2756 76.2772 50.1875 77.8078 50.1758C76.7851 48.7245 75.9305 47.7029 75.6276 47.8463C74.7007 48.3871 74.0246 49.4204 73.2553 50.2941C73.1708 49.5191 72.8355 48.2516 73.0413 48.0523C73.6875 47.4407 74.5845 47.3215 75.2846 46.7863C75.548 46.5596 75.6539 46.0001 75.7991 45.5238C77.126 44.8955 78.4529 44.2671 79.7799 43.6388C79.8981 43.8884 80.0163 44.1381 80.1883 44.4641C79.0873 45.4949 77.9613 46.4356 76.8603 47.4664C76.9391 47.6328 77.0179 47.7992 77.0967 47.9657C81.3226 45.9645 85.5485 43.9634 89.1831 42.2422C88.2629 42.9836 86.8157 44.1783 85.3935 45.4631C87.2234 43.8834 91.3178 46.9365 90.1201 39.1497C90.3709 39.6422 90.6218 40.1347 90.8727 40.6272C90.7707 41.083 90.6937 41.6288 90.5917 42.0846C90.6705 42.251 90.7349 42.4243 90.8137 42.5907C91.7512 42.1468 92.7031 41.696 93.6406 41.2521C93.5618 41.0857 93.4974 40.9124 93.4186 40.746C93.1378 40.6751 92.8177 40.5211 92.5225 40.4571C91.798 37.8458 91.8039 36.9261 93.4554 38.9966C94.4032 40.1778 94.7292 39.4122 95.334 39.5333C95.0976 39.034 94.8361 38.4447 94.5997 37.9454C94.2391 38.1161 93.893 38.28 93.5324 38.4508C94.3316 37.1554 93.1277 31.8166 95.9953 34.33C96.0067 35.5472 96.1373 36.606 95.9382 37.0059C95.7352 37.5095 95.2276 37.4443 94.8526 37.6218C95.0496 38.0379 95.2861 38.5372 95.4831 38.9533C98.1369 37.6966 100.805 36.4331 103.459 35.1764C103.695 35.6757 103.971 36.2582 104.222 36.7507C100.7 39.6411 97.192 42.5248 93.6697 45.4152C93.7485 45.5817 93.7879 45.6649 93.8668 45.8313C94.1331 45.909 94.3744 45.8966 94.8388 45.9823C94.7473 46.535 94.7213 46.8529 94.6559 47.0877C94.7347 47.2541 94.8135 47.4205 94.9462 47.6633C95.1847 47.3467 95.4232 47.03 95.6617 46.7133C95.7799 46.9629 95.8981 47.2126 95.9913 47.3722C95.4865 47.6112 94.9817 47.8503 94.4481 48.103C94.5413 48.2626 94.4337 48.1098 94.4087 48.0198C94.3837 47.9297 94.4125 47.916 94.3875 47.826C94.352 47.6391 94.302 47.459 94.1022 46.7386C93.6146 47.2751 93.2425 47.757 92.8309 48.1556C92.6733 47.8228 92.5406 47.5799 92.383 47.2471C92.409 46.9291 92.4495 46.6043 92.4793 46.1827C90.5847 43.4123 89.9828 43.5954 90.5603 45.9708C91.4193 49.5372 90.9778 50.3575 89.4358 49.1521C89.2705 49.0266 89.1695 49.0744 89.0436 49.0322C88.7994 48.7403 88.5408 48.4552 88.189 48.0106C88.4958 47.7635 88.7198 47.4536 88.9833 47.227C88.9439 47.1437 88.9439 47.1437 88.8901 47.0674C87.2314 47.8528 85.5872 48.6314 83.9286 49.4168C84.0468 49.6665 84.19 50.0062 84.3082 50.2558C84.5457 50.3471 84.7438 50.3552 85.0101 50.4329C85.1311 50.9868 85.1916 51.2638 85.4376 52.2679C86.7838 51.1211 87.9137 50.0766 89.0186 48.9421ZM75.9445 56.4577C76.1021 56.7906 76.2453 57.1302 76.4424 57.5463C77.452 57.0682 78.4616 56.5901 79.4423 56.1257C78.8541 55.1818 78.2841 54.1273 78.212 54.1614C77.8264 54.2421 76.9737 53.9328 77.3456 54.9792C78.4469 58.1252 77.2693 56.6453 76.9482 56.8993C76.7463 56.9949 76.2791 56.6049 75.9445 56.4577ZM65.9836 51.9038C66.0624 52.0702 66.1556 52.2298 66.195 52.313C67.8392 51.5344 69.4835 50.7558 71.1277 49.9772C71.0488 49.8108 70.97 49.6444 70.9306 49.5612C69.272 50.3466 67.6278 51.1252 65.9836 51.9038ZM84.378 52.5659C84.1416 52.0666 83.9052 51.5673 83.6687 51.068C82.7745 51.4915 81.8803 51.9149 81.0255 52.4216C80.9822 52.4421 81.5694 53.794 81.5944 53.8841C82.5752 53.4196 83.4694 52.9962 84.378 52.5659ZM64.378 81.699C64.1665 81.2898 63.9695 80.8737 63.7581 80.4644C62.9532 81.1512 62.1339 81.8448 61.3291 82.5316C61.4079 82.698 61.4867 82.8644 61.5655 83.0309C62.503 82.5869 63.4405 82.143 64.378 81.699ZM82.2146 47.8853C84.4105 48.2717 85.0567 47.6601 84.3927 45.3257C83.6628 46.2826 82.9117 47.0458 82.2146 47.8853Z" fill="#78859D"/>
<defs>
<filter id="filter0_d_703:2161" x="0" y="0" width="117.143" height="133.948" filterUnits="userSpaceOnUse" color-interpolation-filters="sRGB">
<feFlood flood-opacity="0" result="BackgroundImageFix"/>
<feColorMatrix in="SourceAlpha" type="matrix" values="0 0 0 0 0 0 0 0 0 0 0 0 0 0 0 0 0 0 127 0" result="hardAlpha"/>
<feOffset dy="2"/>
<feGaussianBlur stdDeviation="2"/>
<feComposite in2="hardAlpha" operator="out"/>
<feColorMatrix type="matrix" values="0 0 0 0 0 0 0 0 0 0 0 0 0 0 0 0 0 0 0.1 0"/>
<feBlend mode="normal" in2="BackgroundImageFix" result="effect1_dropShadow_703:2161"/>
<feBlend mode="normal" in="SourceGraphic" in2="effect1_dropShadow_703:2161" result="shape"/>
</filter>
<radialGradient id="paint0_angular_703:2161" cx="0" cy="0" r="1" gradientUnits="userSpaceOnUse" gradientTransform="translate(142.11 103.701) rotate(149.443) scale(96.7104 138.926)">
<stop offset="0.0112334" stop-color="#E8EACD"/>
<stop offset="0.0701059" stop-color="#D1CDD5"/>
<stop offset="0.178522" stop-color="#B8E4D8"/>
<stop offset="0.240926" stop-color="#B9DAE5"/>
<stop offset="0.311261" stop-color="#BBCDF6"/>
<stop offset="0.800112" stop-color="#DCCFDF"/>
</radialGradient>
</defs>
</svg>
