<svg width="110" height="126" viewBox="0 0 110 126" fill="none" xmlns="http://www.w3.org/2000/svg">
<path d="M54.5715 125.948L0 94.5063V31.4419L54.5715 0L109.143 31.4419V94.5063L54.5715 125.948ZM1.44558 93.6028L54.5715 124.322L107.697 93.6028V32.3454L54.5715 1.62629L1.44558 32.3454V93.6028Z" fill="url(#paint0_angular_703:2160)"/>
<path d="M56.579 96.9382L55.7273 96.7253C55.8338 96.5123 62.1154 74.1541 52.5333 55.6288C44.1223 39.3392 24.9582 43.2785 24.7453 43.2785L24.5323 42.4268C24.7453 42.4268 44.5482 38.381 53.2786 55.2029C63.0736 74.0476 56.6855 96.7252 56.579 96.9382Z" fill="#78859D" stroke="#78859D" stroke-width="2"/>
<path d="M56.792 98.2158C56.6855 98.0029 50.2975 75.3253 59.986 56.4805C68.7164 39.6586 88.5193 43.5979 88.7323 43.7044L88.5193 44.5562C88.3064 44.5562 69.1423 40.6169 60.7313 56.9064C51.2557 75.4318 57.5373 97.6835 57.5373 98.0029L56.792 98.2158Z" fill="#78859D" stroke="#78859D" stroke-width="2"/>
<path d="M56.8984 98.5351C56.8984 98.4286 56.4726 85.2267 60.7313 76.2834C68.8228 59.1421 89.2646 63.4008 89.4775 63.5073L89.2646 64.359C89.0517 64.359 69.2487 60.2068 61.4766 76.7092C57.3243 85.4396 57.7502 98.4286 57.7502 98.5351H56.8984Z" fill="#78859D" stroke="#78859D" stroke-width="2"/>
<path d="M56.579 98.5351H55.7273C55.7273 98.4287 56.1532 85.4396 52.0009 76.7093C44.2288 60.2068 24.4259 64.3591 24.2129 64.3591L24 63.5073C24.2129 63.5073 44.6547 59.1422 52.7462 76.2834C57.0049 85.2267 56.579 98.3222 56.579 98.5351Z" fill="#78859D" stroke="#78859D" stroke-width="2"/>
<defs>
<radialGradient id="paint0_angular_703:2160" cx="0" cy="0" r="1" gradientUnits="userSpaceOnUse" gradientTransform="translate(138.11 101.701) rotate(149.443) scale(96.7104 138.926)">
<stop offset="0.0112334" stop-color="#E8EACD"/>
<stop offset="0.0701059" stop-color="#D1CDD5"/>
<stop offset="0.178522" stop-color="#B8E4D8"/>
<stop offset="0.240926" stop-color="#B9DAE5"/>
<stop offset="0.311261" stop-color="#BBCDF6"/>
<stop offset="0.800112" stop-color="#DCCFDF"/>
</radialGradient>
</defs>
</svg>
