<svg width="17" height="20" viewBox="0 0 17 20" fill="none" xmlns="http://www.w3.org/2000/svg">
<path d="M12.5 5.73583V4.07547C12.5 1.81132 10.8051 0 8.68644 0H7.90962C5.79098 0 4.09604 1.81132 4.09604 4.07547V5.73583H0V17.2075C0 18.717 1.12995 20 2.61301 20H14.0537C15.4661 20 16.6667 18.717 16.6667 17.2075V5.73583H12.5ZM4.94351 4.07547C4.94351 2.33962 6.2853 0.981123 7.83897 0.981123H8.61584C10.2401 0.981123 11.5113 2.41509 11.5113 4.07547V5.73583H4.94351V4.07547ZM15.678 17.1321C15.678 18.1132 14.9011 18.9434 13.9831 18.9434H2.54236C1.62428 18.9434 0.847467 18.1132 0.847467 17.1321V6.6415H4.02544V10.0377H4.94351V6.6415H11.5113V10.0377H12.4294V6.6415H15.6073V17.1321H15.678Z" fill="white"/>
</svg>
