<svg width="18" height="20" viewBox="0 0 18 20" fill="none" xmlns="http://www.w3.org/2000/svg">
<path d="M12.6364 5.0942V3.90904C12.6364 2.29291 11.1572 1 9.30817 1H8.63022C6.78121 1 5.302 2.29291 5.302 3.90904V5.0942H1.72727L1 17.0068C1 18.0842 1.98614 19 3.28044 19H14.7196C15.9522 19 17 18.0842 17 17.0068L16.2727 5.0942H12.6364ZM6.04161 3.90904C6.04161 2.67 7.21263 1.70032 8.56856 1.70032H9.24655C10.6641 1.70032 11.7735 2.72387 11.7735 3.90904V5.0942H6.04161V3.90904ZM16.1372 16.9529C16.1372 17.6532 15.4592 18.2458 14.6579 18.2458H3.21879C2.41755 18.2458 1.73961 17.6532 1.73961 16.9529L2.46688 5.74066H5.24038V8.16486H6.04161V5.74066H11.7735V8.16486H12.5747V5.74066H15.3482L16.0755 16.9529H16.1372Z" fill="black" stroke="#78859D" stroke-width="0.2" stroke-miterlimit="10"/>
</svg>
