<svg width="30" height="18" viewBox="0 0 30 18" fill="none" xmlns="http://www.w3.org/2000/svg">
<circle cx="15" cy="9" r="8" fill="#BBCDF6"/>
<circle cx="14.5" cy="9.5" r="2.5" fill="black"/>
<path d="M29.0574 7.71292C27.3998 5.58752 25.2526 3.82948 22.8481 2.62899C20.3936 1.40353 17.753 0.767689 14.9965 0.734346C14.9206 0.732269 14.6158 0.732269 14.5398 0.734346C11.7834 0.767747 9.14277 1.40353 6.68826 2.62899C4.28377 3.82948 2.13668 5.58747 0.478955 7.71292C-0.159652 8.53169 -0.159652 9.67535 0.478955 10.4941C2.13662 12.6195 4.28377 14.3776 6.68826 15.578C9.14277 16.8035 11.7833 17.4394 14.5398 17.4727C14.6158 17.4748 14.9206 17.4748 14.9965 17.4727C17.7529 17.4393 20.3936 16.8035 22.8481 15.578C25.2526 14.3776 27.3997 12.6196 29.0574 10.4941C29.696 9.67524 29.696 8.53169 29.0574 7.71292ZM7.22505 14.503C4.97983 13.382 2.97471 11.7402 1.42642 9.75514C1.1272 9.37145 1.1272 8.83559 1.42642 8.45191C2.97465 6.4668 4.97977 4.825 7.22505 3.70401C7.86273 3.38569 8.51391 3.1104 9.17715 2.87734C7.47086 4.41115 6.39584 6.63398 6.39584 9.10349C6.39584 11.5731 7.47092 13.7961 9.17739 15.3299C8.51415 15.0968 7.86279 14.8214 7.22505 14.503ZM14.7682 16.2743C10.8142 16.2743 7.59737 13.0575 7.59737 9.10343C7.59737 5.14938 10.8142 1.93264 14.7682 1.93264C18.7223 1.93264 21.9391 5.14944 21.9391 9.10349C21.9391 13.0575 18.7223 16.2743 14.7682 16.2743ZM28.11 9.75508C26.5618 11.7402 24.5567 13.382 22.3114 14.503C21.6745 14.821 21.0237 15.095 20.3612 15.3279C22.0664 13.7941 23.1406 11.572 23.1406 9.10343C23.1406 6.63358 22.0653 4.41046 20.3587 2.87665C21.0221 3.10976 21.6736 3.3854 22.3114 3.70389C24.5567 4.82489 26.5618 6.46669 28.1101 8.45179C28.4092 8.83553 28.4092 9.3714 28.11 9.75508Z" fill="#828282"/>
<path d="M14.7684 6.03479C13.0763 6.03479 11.6997 7.4114 11.6997 9.1035C11.6997 10.7956 13.0763 12.1722 14.7684 12.1722C16.4605 12.1722 17.8371 10.7956 17.8371 9.1035C17.8372 7.4114 16.4606 6.03479 14.7684 6.03479ZM14.7684 10.9708C13.7389 10.9708 12.9012 10.1332 12.9012 9.1035C12.9012 8.07389 13.7387 7.23632 14.7684 7.23632C15.798 7.23632 16.6356 8.07389 16.6356 9.1035C16.6357 10.1332 15.798 10.9708 14.7684 10.9708Z" fill="#828282"/>
</svg>
