<svg width="8" height="9" viewBox="0 0 8 9" fill="none" xmlns="http://www.w3.org/2000/svg">
<path d="M1.9875 5.95286V6.75H4.825V7.18714H1.9875V9H1.3375V7.18714H0V6.75H1.3375V0H4.4875C5.5875 0 6.44583 0.261429 7.0625 0.784286C7.6875 1.29857 8 2.02714 8 2.97C8 3.91286 7.6875 4.64571 7.0625 5.16857C6.44583 5.69143 5.5875 5.95286 4.4875 5.95286H1.9875ZM1.9875 0.591428V5.37429H4.5C5.41667 5.37429 6.12083 5.16857 6.6125 4.75714C7.10417 4.33714 7.35 3.74571 7.35 2.98286C7.35 2.21143 7.10417 1.62 6.6125 1.20857C6.12917 0.797143 5.425 0.591428 4.5 0.591428H1.9875Z" fill="#78859D"/>
</svg>
