<svg width="31" height="24" viewBox="0 0 31 24" fill="none" xmlns="http://www.w3.org/2000/svg">
<path d="M29.8076 2.79102C28.707 1.43468 26.6662 0.882507 22.7758 0.882507H8.65095C4.66879 0.882507 2.59745 1.47174 1.49682 2.91516C0.426758 4.32338 0.426758 6.39495 0.426758 9.26512V14.7349C0.426758 20.2937 1.69937 23.1176 8.65095 23.1176H22.7758C26.1503 23.1176 28.021 22.6302 29.2305 21.4314C30.4707 20.2066 31 18.2036 31 14.7349V9.26512C31 6.2393 30.9178 4.15291 29.8076 2.79102ZM20.0548 12.756L13.6401 16.221C13.4911 16.3013 13.3223 16.3407 13.1519 16.3348C12.9815 16.3289 12.816 16.278 12.6732 16.1876C12.5256 16.0922 12.4047 15.9626 12.3217 15.8106C12.2386 15.6585 12.1959 15.4888 12.1974 15.3168V8.40907C12.1974 8.05331 12.3771 7.72349 12.6713 7.5382C12.814 7.44761 12.9795 7.39661 13.15 7.39073C13.3204 7.38485 13.4892 7.42431 13.6382 7.50485L20.0528 10.9476C20.3777 11.1217 20.584 11.4701 20.584 11.8499C20.5868 12.033 20.5392 12.2134 20.4461 12.3726C20.3531 12.5319 20.218 12.6642 20.0548 12.756Z" fill="#78859D"/>
</svg>
