<svg width="24" height="40" viewBox="0 0 24 40" fill="none" xmlns="http://www.w3.org/2000/svg">
<path d="M10.2237 27.9272C7.24551 27.6165 4.56023 26.8831 2.2612 25.085C1.97593 24.8612 1.68141 24.6456 1.42109 24.3957C0.414811 23.4293 0.313419 22.3224 1.10967 21.1818C1.79085 20.2057 2.93433 19.9445 4.12287 20.505C4.35302 20.6136 4.5723 20.7492 4.78232 20.8949C9.06695 23.8389 14.9529 23.9202 19.2537 21.0273C19.6797 20.7005 20.1352 20.4342 20.6631 20.2982C21.6895 20.0347 22.6467 20.4117 23.1975 21.3097C23.8268 22.3353 23.8187 23.3363 23.0434 24.1326C21.854 25.3533 20.4237 26.2365 18.8344 26.8529C17.3316 27.4355 15.6856 27.7288 14.0565 27.9235C14.3023 28.1911 14.4182 28.3227 14.5719 28.4772C16.784 30.6998 19.0058 32.9131 21.2107 35.1425C21.9619 35.9021 22.1188 36.844 21.7052 37.7276C21.2529 38.6932 20.2406 39.3286 19.248 39.2606C18.6192 39.2171 18.1287 38.9041 17.6929 38.4651C16.0236 36.7853 14.3229 35.1365 12.6873 33.4249C12.2113 32.9272 11.9824 33.0213 11.5623 33.4534C9.88292 35.1823 8.17615 36.8847 6.45932 38.5774C5.68842 39.3374 4.77106 39.4742 3.87704 39.0401C2.92668 38.5794 2.32195 37.6093 2.36862 36.6344C2.40081 35.975 2.72511 35.4712 3.17775 35.0194C5.36694 32.8334 7.55009 30.6418 9.73405 28.4522C9.87849 28.3066 10.0133 28.1521 10.2237 27.9272Z" fill="#78859D"/>
<path d="M12.0378 20.3128C6.72476 20.2947 2.36811 15.8901 2.39909 10.5687C2.42967 5.18843 6.78913 0.852705 12.1545 0.867592C17.5307 0.882077 21.8459 5.28017 21.8189 10.7163C21.7916 16.0269 17.4047 20.3313 12.0378 20.3128ZM16.8664 10.5815C16.8571 7.9393 14.7529 5.83581 12.1158 5.8334C9.45672 5.83058 7.33351 7.97229 7.35403 10.6387C7.37375 13.2708 9.49615 15.3594 12.1404 15.3498C14.7766 15.3405 16.8753 13.2234 16.8664 10.5815Z" fill="#78859D"/>
</svg>
