<svg width="17" height="28" viewBox="0 0 17 28" fill="none" xmlns="http://www.w3.org/2000/svg">
<path d="M15.6455 0.103088H12.1277C7.85511 0.103088 5.09588 2.86639 5.09588 7.14435V9.87986H1.55512C1.22455 9.87986 0.957031 10.1419 0.957031 10.4655V15.1702C0.957031 15.4938 1.22455 15.7539 1.55512 15.7539H5.09588V27.3133C5.09588 27.6349 5.36339 27.8969 5.69206 27.8969H10.6793C11.0118 27.8969 11.2793 27.6349 11.2793 27.3133V15.7519H15.6436C15.9742 15.7519 16.2417 15.4918 16.2417 15.1682L16.2436 10.4655C16.2428 10.3882 16.2268 10.3118 16.1966 10.2412C16.1663 10.1705 16.1225 10.107 16.0678 10.0545C15.9533 9.94335 15.8023 9.88161 15.6455 9.88184H11.2793V7.63864C11.2793 6.31655 11.6022 5.64557 13.3678 5.64557L15.6455 5.63763C15.9742 5.63763 16.2417 5.37758 16.2417 5.054V0.686717C16.2436 0.365125 15.9761 0.103088 15.6455 0.103088Z" fill="#78859D"/>
</svg>
