<svg width="27" height="27" viewBox="0 0 27 27" fill="none" xmlns="http://www.w3.org/2000/svg">
<path d="M7.74423 0.492737H19.0603C21.0611 0.492737 22.9799 1.28755 24.3947 2.70233C25.8095 4.11712 26.6043 6.03597 26.6043 8.03677V19.3528C26.6043 21.3536 25.8095 23.2725 24.3947 24.6873C22.9799 26.102 21.0611 26.8969 19.0603 26.8969H7.74423C5.74343 26.8969 3.82457 26.102 2.40979 24.6873C0.995011 23.2725 0.200195 21.3536 0.200195 19.3528V8.03677C0.200195 6.03597 0.995011 4.11712 2.40979 2.70233C3.82457 1.28755 5.74343 0.492737 7.74423 0.492737ZM13.4023 19.3528C14.9029 19.3528 16.342 18.7567 17.4031 17.6956C18.4642 16.6345 19.0603 15.1954 19.0603 13.6948C19.0603 12.1942 18.4642 10.7551 17.4031 9.69397C16.342 8.63288 14.9029 8.03677 13.4023 8.03677C11.9017 8.03677 10.4625 8.63288 9.40143 9.69397C8.34034 10.7551 7.74423 12.1942 7.74423 13.6948C7.74423 15.1954 8.34034 16.6345 9.40143 17.6956C10.4625 18.7567 11.9017 19.3528 13.4023 19.3528ZM19.8977 8.87416C20.1225 8.8817 20.3465 8.84394 20.5564 8.76312C20.7663 8.68231 20.9577 8.56009 21.1194 8.40374C21.2811 8.24739 21.4097 8.0601 21.4975 7.85304C21.5853 7.64597 21.6306 7.42336 21.6306 7.19844C21.6306 6.97353 21.5853 6.75091 21.4975 6.54384C21.4097 6.33678 21.2811 6.1495 21.1194 5.99315C20.9577 5.8368 20.7663 5.71458 20.5564 5.63376C20.3465 5.55294 20.1225 5.51518 19.8977 5.52272C19.463 5.53731 19.051 5.72025 18.7486 6.03291C18.4463 6.34558 18.2772 6.7635 18.2772 7.19844C18.2772 7.63338 18.4463 8.05131 18.7486 8.36397C19.051 8.67664 19.463 8.85958 19.8977 8.87416Z" fill="#78859D"/>
</svg>
