<svg width="45" height="26" viewBox="0 0 45 26" fill="none" xmlns="http://www.w3.org/2000/svg">
<path d="M42.7079 20.3198C41.4101 18.7631 39.8827 17.4345 38.4376 16.0238C37.1339 14.7521 37.0517 14.0144 38.0997 12.5467C39.2435 10.9448 40.4736 9.40441 41.6278 7.80976C42.7052 6.31947 43.8066 4.83324 44.3735 3.04887C44.7331 1.91365 44.415 1.41221 43.2509 1.21345C43.0503 1.17866 42.843 1.17686 42.6388 1.17686L35.7321 1.16873C34.8815 1.15608 34.4113 1.52696 34.1104 2.28091C33.7043 3.30004 33.2855 4.31826 32.8017 5.3017C31.704 7.53149 30.478 9.68674 28.7591 11.5118C28.3801 11.9143 27.9609 12.4229 27.3275 12.2133C26.5352 11.9242 26.3016 10.6187 26.3147 10.1773L26.3079 2.20547C26.1543 1.06663 25.9018 0.558877 24.7711 0.337524L17.5966 0.33888C16.6389 0.33888 16.1587 0.708854 15.6473 1.30786C15.3523 1.6539 15.2633 1.87841 15.8696 1.99315C17.0604 2.21902 17.7312 2.98969 17.9092 4.18364C18.1947 6.09134 18.1748 8.00672 18.0104 9.9221C17.962 10.4814 17.8658 11.0393 17.644 11.5615C17.2971 12.3823 16.7369 12.5494 16.001 12.0444C15.3347 11.5872 14.8667 10.9421 14.4086 10.2943C12.688 7.86307 11.3151 5.24117 10.1957 2.486C9.87227 1.69004 9.31437 1.20758 8.47097 1.19448C6.39884 1.1615 4.32626 1.15608 2.25412 1.19628C1.00732 1.21977 0.635538 1.82511 1.14329 2.95536C3.40019 7.97555 5.91232 12.8562 9.1915 17.3022C10.8751 19.5839 12.8081 21.5982 15.3054 23.0257C18.1355 24.6439 21.182 25.1308 24.3908 24.9809C25.8932 24.9104 26.3445 24.5196 26.4141 23.0221C26.4611 21.9976 26.5772 20.9789 27.0827 20.0582C27.5787 19.1548 28.3299 18.9827 29.1959 19.5446C29.6291 19.8261 29.9941 20.1843 30.3388 20.5619C31.1845 21.4871 31.9999 22.4403 32.8776 23.3343C33.9785 24.4546 35.2827 25.1164 36.9225 24.9813L43.2703 24.9827C44.2931 24.9158 44.8234 23.6618 44.2362 22.5202C43.8237 21.7207 43.2825 21.0087 42.7079 20.3198Z" fill="#78859D"/>
</svg>
