<svg width="36" height="30" viewBox="0 0 36 30" fill="none" xmlns="http://www.w3.org/2000/svg">
<path d="M35.3818 3.89119C35.3313 3.8316 35.2479 3.81138 35.1767 3.84388C34.1225 4.31156 33.0135 4.64778 31.8712 4.84641C33.0839 3.93416 33.9875 2.67089 34.4508 1.22235C34.4732 1.15301 34.4501 1.07717 34.3934 1.03203C34.3363 0.986886 34.2572 0.981108 34.1948 1.01831C32.8289 1.82835 31.3497 2.39931 29.7961 2.71603C28.4194 1.28736 26.497 0.470093 24.5075 0.470093C20.4613 0.470093 17.1698 3.76154 17.1698 7.80741C17.1698 8.29676 17.2171 8.78141 17.311 9.25197C11.7068 8.906 6.46667 6.2155 2.90365 1.84532C2.86717 1.80054 2.81192 1.77562 2.75414 1.7814C2.69671 1.78573 2.64543 1.81823 2.61654 1.86771C1.96649 2.98292 1.62304 4.25883 1.62304 5.55677C1.62304 7.80632 2.64507 9.90961 4.38541 11.2975C3.48942 11.1899 2.61437 10.9078 1.82528 10.4697C1.77219 10.4398 1.7061 10.4401 1.65302 10.4708C1.59993 10.5012 1.56634 10.5575 1.5649 10.6189L1.56417 10.7128C1.56417 13.9436 3.6931 16.7803 6.722 17.7222C5.92424 17.8508 5.0965 17.8421 4.28285 17.6868C4.2229 17.6756 4.16006 17.6962 4.11889 17.7424C4.07808 17.7886 4.06436 17.8533 4.08314 17.9118C4.99141 20.7468 7.51507 22.7348 10.4526 22.9826C8.00225 24.7778 5.10589 25.7236 2.04558 25.7236C1.48183 25.7236 0.91412 25.6901 0.357961 25.6247C0.27851 25.6157 0.199781 25.663 0.172335 25.7392C0.144888 25.8161 0.17414 25.9021 0.242757 25.9457C3.55443 28.0696 7.38361 29.1917 11.3168 29.1917C24.1825 29.1917 31.8705 18.741 31.8705 8.63767C31.8705 8.35634 31.865 8.07646 31.8538 7.7973C33.2417 6.78213 34.4331 5.53944 35.3938 4.10101C35.4367 4.03673 35.432 3.95114 35.3818 3.89119Z" fill="#78859D"/>
</svg>
