<svg width="21" height="21" viewBox="0 0 21 21" fill="none" xmlns="http://www.w3.org/2000/svg">
<path fill-rule="evenodd" clip-rule="evenodd" d="M8.1173 15.7175C11.862 15.7175 14.8976 12.6818 14.8976 8.93713C14.8976 5.19245 11.862 2.15679 8.1173 2.15679C4.37263 2.15679 1.33697 5.19245 1.33697 8.93713C1.33697 12.6818 4.37263 15.7175 8.1173 15.7175ZM8.1173 17.0544C12.6004 17.0544 16.2346 13.4202 16.2346 8.93713C16.2346 4.45406 12.6004 0.819824 8.1173 0.819824C3.63424 0.819824 0 4.45406 0 8.93713C0 13.4202 3.63424 17.0544 8.1173 17.0544Z" fill="white"/>
<path fill-rule="evenodd" clip-rule="evenodd" d="M20.0546 20.8742L13.3698 14.1894L14.3152 13.244L21 19.9289L20.0546 20.8742Z" fill="white"/>
</svg>
