<svg width="279" height="24" viewBox="0 0 279 24" fill="none" xmlns="http://www.w3.org/2000/svg">
<path d="M120.54 16.3914L112.771 0.657293H110.138V22.5138H112.706V6.25309L120.54 22.3163L128.374 6.25309V22.5138H131.007V0.657293H128.374L120.54 16.3914Z" fill="black"/>
<path d="M120.54 22.9099L112.97 7.30746V22.7782H109.876V0.395002H112.904L112.97 0.526676L120.54 15.7999L128.177 0.329165H131.205V22.7124H128.045V7.30746L120.54 22.9099ZM128.638 22.2515H130.745V0.855841H128.506L120.54 16.9191L112.509 0.724167L110.336 0.790004V22.1857H112.377V6.18829L112.838 6.05664L120.475 21.7249L128.045 6.05664L128.506 6.18829V22.2515H128.638Z" fill="black"/>
<path d="M18.1657 17.31C16.1907 19.1534 14.2816 20.4042 11.2533 20.4042C6.64495 20.4042 2.95831 16.52 2.95831 11.5167C2.95831 6.4476 6.51329 2.69512 11.2533 2.69512C14.4791 2.69512 16.5199 4.27511 17.9682 5.65761L18.0341 5.72344L19.8115 3.81429L19.7457 3.74845C17.8366 1.97096 15.4666 0.259295 11.2533 0.259295C4.99913 0.259295 0.259155 5.13094 0.259155 11.5826C0.259155 18.0342 4.9333 22.84 11.1874 22.84C15.5324 22.84 18.0341 20.9308 19.8774 19.0217L19.9432 18.9559L18.1657 17.31Z" fill="black"/>
<path d="M11.1916 23.1074C4.80581 23.1074 0 18.1699 0 11.5866C0 5.00331 4.87164 0 11.2574 0C15.6024 0 17.9724 1.71165 19.8815 3.55498L20.0791 3.75249L19.9474 4.01581L17.9724 6.12248L17.7749 5.92497C16.3266 4.54247 14.2857 2.96248 11.1916 2.96248C6.64913 2.96248 3.15998 6.64913 3.15998 11.5208C3.15998 16.3924 6.71496 20.1449 11.1916 20.1449C14.1541 20.1449 15.9974 18.9599 17.9066 17.1166L18.1041 16.9191L18.3674 17.0507L20.2765 18.9599L20.0791 19.1574C18.1699 21.1324 15.6024 23.1074 11.1916 23.1074ZM11.2574 0.526676C5.13497 0.526676 0.460831 5.26664 0.460831 11.5866C0.460831 17.8407 5.06914 22.5807 11.1258 22.5807C15.2732 22.5807 17.7091 20.7374 19.5524 18.9599L18.1699 17.5774C16.1949 19.4207 14.2199 20.6715 11.1916 20.6715C6.3858 20.6715 2.63332 16.6557 2.63332 11.5208C2.63332 6.31996 6.31996 2.43583 11.1916 2.43583C14.4174 2.43583 16.5241 3.94998 17.9724 5.33247L19.4207 3.75249C17.5774 2.04083 15.2732 0.526676 11.2574 0.526676Z" fill="black"/>
<path d="M47.1322 0.259329C40.878 0.259329 36.0064 5.26264 36.0064 11.5826C36.0064 18.0342 40.7464 22.84 47.0663 22.84C53.3205 22.84 58.1921 17.8367 58.1921 11.5168C58.1921 5.13097 53.4521 0.259329 47.1322 0.259329ZM47.1322 20.4042C42.3264 20.4042 38.7056 16.5859 38.7056 11.5168C38.7056 6.44763 42.3264 2.69516 47.0663 2.69516C51.8721 2.69516 55.493 6.51347 55.493 11.5826C55.493 16.6517 51.938 20.4042 47.1322 20.4042Z" fill="black"/>
<path d="M47.0706 23.1074C40.619 23.1074 35.7473 18.1699 35.7473 11.5866C35.7473 5.06914 40.7507 2.86102e-06 47.1364 2.86102e-06C53.5881 2.86102e-06 58.4597 4.93747 58.4597 11.5208C58.4597 18.0382 53.4564 23.1074 47.0706 23.1074ZM47.1364 0.526679C41.014 0.526679 36.274 5.39831 36.274 11.5866C36.274 17.8407 40.9481 22.5807 47.0706 22.5807C53.1931 22.5807 57.933 17.7091 57.933 11.5208C57.9989 5.26664 53.3247 0.526679 47.1364 0.526679ZM47.1364 20.6715C42.199 20.6715 38.4465 16.7216 38.4465 11.5208C38.4465 6.31997 42.1331 2.43583 47.0706 2.43583C52.0081 2.43583 55.7606 6.3858 55.7606 11.5866C55.7606 16.7874 52.0739 20.6715 47.1364 20.6715ZM47.0706 2.96249C42.4623 2.96249 38.9732 6.64913 38.9732 11.5208C38.9732 16.4582 42.4623 20.1449 47.1364 20.1449C51.7448 20.1449 55.2339 16.4582 55.2339 11.5866C55.2339 6.64913 51.7447 2.96249 47.0706 2.96249Z" fill="black"/>
<path d="M84.6573 10.2669C79.7857 9.21358 78.864 8.02859 78.864 6.11944C78.864 4.07862 80.7074 2.69612 83.3407 2.69612C85.579 2.69612 87.554 3.42028 89.529 5.00027L89.5948 5.06611L91.109 3.02528L91.0431 2.95945C88.739 1.05029 86.4348 0.26029 83.4065 0.26029C79.259 0.26029 76.2307 2.82778 76.2307 6.31693C76.2307 9.74024 78.2715 11.5177 83.5382 12.7027C88.2123 13.6902 89.0681 14.8752 89.0681 16.7844C89.0681 18.9569 87.159 20.4052 84.3282 20.4052C81.4974 20.4052 79.3907 19.5493 76.9549 17.3769L76.889 17.311L75.2432 19.2202L75.3091 19.286C77.9424 21.656 80.7732 22.7752 84.1965 22.7752C88.6732 22.7752 91.6356 20.2735 91.6356 16.521C91.7673 13.2952 89.5948 11.3861 84.6573 10.2669Z" fill="black"/>
<path d="M84.266 23.1074C80.7768 23.1074 77.946 21.9882 75.1811 19.5524L74.9836 19.4207L75.0494 19.1574L76.8269 16.9849L77.0244 17.1824C79.4602 19.3549 81.501 20.2107 84.266 20.2107C86.9651 20.2107 88.7426 18.8282 88.7426 16.8533C88.7426 15.1416 87.8868 14.0225 83.4102 13.035C78.0119 11.85 75.9052 10.0066 75.9052 6.38583C75.9052 2.76501 79.0652 0.0658598 83.3443 0.0658598C86.4385 0.0658598 88.7426 0.855863 91.1785 2.83085L91.376 2.96251L91.3101 3.22583L89.6643 5.46417L89.4668 5.3325C87.4918 3.68667 85.5827 2.96251 83.3443 2.96251C80.8427 2.96251 79.0652 4.27918 79.0652 6.1225C79.0652 7.89999 79.921 9.01914 84.661 10.0066C89.796 11.1258 91.9685 13.1008 91.9685 16.5241C92.0343 20.4741 88.8743 23.1074 84.266 23.1074ZM75.7077 19.2233C78.341 21.5274 81.0402 22.5149 84.3318 22.5149C88.611 22.5149 91.5735 20.0791 91.5735 16.5241C91.5735 13.3641 89.5326 11.5866 84.661 10.5333C79.5919 9.41413 78.6702 8.16332 78.6702 6.1225C78.6702 3.95001 80.6452 2.43585 83.4102 2.43585C85.7143 2.43585 87.6893 3.16001 89.5985 4.74L90.8493 3.09418C88.5451 1.31669 86.3727 0.592515 83.476 0.592515C79.4602 0.592515 76.5635 3.02835 76.5635 6.38583C76.5635 9.67747 78.5385 11.3891 83.6735 12.5083C88.4793 13.5616 89.401 14.8124 89.401 16.8533C89.401 19.1574 87.426 20.7374 84.3977 20.7374C81.5668 20.7374 79.3944 19.8816 77.0244 17.7091L75.7077 19.2233Z" fill="black"/>
<path d="M153.716 12.7018H165.566V10.2659H153.716V3.02431H166.948V0.654318H151.149V22.5109H167.08V20.075H153.716V12.7018Z" fill="black"/>
<path d="M167.347 22.7781H150.889V0.394931H167.216V3.29158H154.049V10.0065H165.833V12.9032H154.049V19.8156H167.413V22.7781H167.347ZM151.35 22.2515H166.821V20.3423H153.457V12.4424H165.241V10.5332H153.457V2.83076H166.623V0.921586H151.35V22.2515Z" fill="black"/>
<path d="M194.862 0.654318H187.291V22.5109H194.862C201.577 22.5109 206.448 17.9026 206.448 11.5168C206.382 5.19679 201.511 0.654318 194.862 0.654318ZM189.858 3.09015H194.796C199.997 3.09015 203.683 6.57929 203.683 11.5826C203.683 16.5859 200.062 20.075 194.796 20.075H189.858V3.09015Z" fill="black"/>
<path d="M194.865 22.7781H187.031V0.394931H194.865C201.712 0.394931 206.715 5.06907 206.715 11.5865C206.649 18.0382 201.712 22.7781 194.865 22.7781ZM187.492 22.2515H194.799C201.383 22.2515 206.123 17.7748 206.123 11.5207C206.123 5.3324 201.383 0.85577 194.799 0.85577H187.492V22.2515ZM194.865 20.3423H189.664V2.83076H194.865C200.198 2.83076 203.95 6.45156 203.95 11.5865C203.95 16.7215 200.198 20.3423 194.865 20.3423ZM190.125 19.8156H194.865C199.934 19.8156 203.489 16.4582 203.489 11.5865C203.489 6.71489 199.934 3.29158 194.865 3.29158H190.125V19.8156Z" fill="black"/>
<path d="M229.69 0.657553H227.057V22.5141H229.69V0.657553Z" fill="black"/>
<path d="M229.889 22.7781H226.729V0.394931H229.889V22.7781ZM227.322 22.2515H229.428V0.85577H227.322V22.2515Z" fill="black"/>
<path d="M261.026 11.3222L269.124 0.657293H266.03L259.512 9.41309L252.929 0.657293H249.835L257.866 11.3222L249.506 22.5138H252.534L259.381 13.2314L266.227 22.448L266.293 22.5138H269.387L261.026 11.3222Z" fill="black"/>
<path d="M269.915 22.7782L266.097 22.6465L259.448 13.6274L252.799 22.6465L249.046 22.7782L257.604 11.3891L249.375 0.395002H252.996L259.579 9.01912L265.899 0.460839L269.652 0.329165L261.423 11.2574L269.915 22.7782ZM259.382 12.8374L266.426 22.3174L268.862 22.2516L260.699 11.3233L268.599 0.855841H266.031L259.514 9.80911L252.733 0.724167L250.297 0.790004L258.197 11.2574L250.034 22.1857H252.535L259.382 12.8374Z" fill="black"/>
<path d="M275.972 16.4582C277.618 16.4582 279 17.7749 279 19.4207C279 21.1323 277.618 22.449 275.972 22.449C274.326 22.449 272.943 21.1323 272.943 19.4207C272.943 17.7749 274.326 16.4582 275.972 16.4582ZM275.972 22.054C277.354 22.054 278.408 20.9348 278.408 19.4865C278.408 18.0382 277.354 16.919 275.972 16.919C274.589 16.919 273.47 18.0382 273.47 19.4865C273.536 20.9348 274.589 22.054 275.972 22.054ZM274.787 17.709H276.169C277.025 17.709 277.42 18.0382 277.42 18.6965C277.42 19.3548 277.025 19.6182 276.498 19.684L277.486 21.264H276.893L275.972 19.7499H275.379V21.264H274.853V17.709H274.787ZM275.379 19.289H275.972C276.433 19.289 276.893 19.289 276.893 18.6965C276.893 18.2357 276.498 18.1699 276.103 18.1699H275.379V19.289Z" fill="black"/>
</svg>
