<svg width="18" height="26" fill="none" xmlns="http://www.w3.org/2000/svg"><path d="M12.636 6.462V4.88c0-2.155-1.479-3.88-3.328-3.88H8.63C6.781 1 5.302 2.725 5.302 4.88v1.582H1.727L1 22.352c0 1.438.986 2.66 2.28 2.66h11.44c1.232 0 2.28-1.222 2.28-2.66l-.727-15.89h-3.637zM6.042 4.88c0-1.653 1.17-2.947 2.527-2.947h.678c1.417 0 2.527 1.366 2.527 2.947v1.58H6.042V4.88zm10.095 17.4c0 .934-.678 1.725-1.48 1.725H3.22c-.801 0-1.48-.79-1.48-1.725l.728-14.957H5.24v3.234h.802V7.324h5.732v3.234h.8V7.324h2.774l.728 14.957h.061z" fill="#000" stroke="#78859D" stroke-width=".2" stroke-miterlimit="10"/></svg>