<svg width="19" height="18" viewBox="0 0 19 18" fill="none" xmlns="http://www.w3.org/2000/svg">
<path fill-rule="evenodd" clip-rule="evenodd" d="M7.28572 13.3714C10.6468 13.3714 13.3714 10.6468 13.3714 7.28572C13.3714 3.92467 10.6468 1.2 7.28572 1.2C3.92467 1.2 1.2 3.92467 1.2 7.28572C1.2 10.6468 3.92467 13.3714 7.28572 13.3714ZM7.28572 14.5714C11.3095 14.5714 14.5714 11.3095 14.5714 7.28572C14.5714 3.26193 11.3095 0 7.28572 0C3.26193 0 0 3.26193 0 7.28572C0 11.3095 3.26193 14.5714 7.28572 14.5714Z" fill="#333"/>
<path fill-rule="evenodd" clip-rule="evenodd" d="M18.0001 18L12.0001 12L12.8486 11.1515L18.8486 17.1515L18.0001 18Z" fill="black"/>
</svg>
