<svg width="26" height="19" viewBox="0 0 26 19" fill="none" xmlns="http://www.w3.org/2000/svg">
<path d="M0 9.23152C0.149225 9.61815 0.440893 9.74025 0.841088 9.74025C6.55913 9.73346 12.2772 9.74025 17.9952 9.73346C18.1851 9.73346 18.2869 9.76738 18.3615 9.97087C18.7278 11.0087 19.7045 11.6802 20.7898 11.6802C21.9022 11.6802 22.8654 11.0019 23.2452 9.96409C23.2724 9.89626 23.2995 9.82164 23.3266 9.74025C23.9846 9.74025 24.6357 9.74703 25.2869 9.74025C25.8363 9.73346 26.1619 9.23831 25.9177 8.78385C25.7753 8.52609 25.5447 8.43113 25.2598 8.43113C24.6154 8.43113 23.9778 8.43113 23.3266 8.43113C23.2656 8.26834 23.2181 8.11912 23.1435 7.97667C22.6144 6.96601 21.7869 6.45729 20.6406 6.4912C19.6435 6.52512 18.721 7.20341 18.3751 8.17338C18.3004 8.37687 18.2055 8.43113 18.002 8.43113C12.284 8.42435 6.56591 8.43113 0.847871 8.42435C0.447676 8.42435 0.156009 8.54644 0.00678338 8.93307C4.13899e-07 9.02803 0 9.12978 0 9.23152ZM22.0921 9.06873C22.0921 9.79451 21.5088 10.3778 20.7898 10.3778C20.0776 10.3711 19.501 9.79451 19.501 9.0823C19.501 8.3633 20.0844 7.77319 20.8034 7.77997C21.5156 7.77997 22.0921 8.35652 22.0921 9.06873Z" fill="white"/>
<path d="M0 2.73348C0.149225 3.12011 0.440893 3.2422 0.841088 3.2422C3.96125 3.23542 7.08142 3.2422 10.2084 3.23542C10.4051 3.23542 10.4933 3.27611 10.5679 3.4796C10.9341 4.5174 11.9041 5.18213 13.003 5.18213C14.1018 5.18213 15.065 4.5174 15.4313 3.4796C15.5059 3.27611 15.6008 3.2422 15.7908 3.2422C18.9313 3.24898 22.065 3.24898 25.2055 3.24898C25.7821 3.24898 26.1348 2.83522 25.9449 2.36041C25.8295 2.06196 25.5921 1.93987 25.2869 1.93987C24.7036 1.93987 24.1202 1.93987 23.5369 1.93987C20.9458 1.93987 18.3615 1.93987 15.7704 1.94665C15.5737 1.94665 15.4991 1.88561 15.4313 1.70925C15.0582 0.671453 14.095 -6.10352e-05 13.003 -6.10352e-05C11.9109 -6.10352e-05 10.9341 0.66467 10.5679 1.70246C10.5 1.89917 10.4051 1.94665 10.2084 1.94665C7.0882 1.93987 3.96804 1.94665 0.841088 1.93987C0.440893 1.93987 0.149225 2.06196 0 2.44859C0 2.52999 0 2.63173 0 2.73348ZM14.2985 2.57069C14.3053 3.27611 13.7287 3.86623 13.0165 3.8798C12.3043 3.89336 11.7074 3.30325 11.6938 2.58425C11.6871 1.87882 12.2636 1.29549 12.9758 1.27514C13.6948 1.26157 14.2985 1.85169 14.2985 2.57069Z" fill="white"/>
<path d="M0 15.7297C0.149225 16.1163 0.440893 16.2452 0.841088 16.2384C1.45156 16.2248 2.05524 16.2316 2.63857 16.2316C2.7878 16.5233 2.89633 16.815 3.07268 17.0591C3.67637 17.9002 4.51746 18.2801 5.5349 18.1512C6.55913 18.0155 7.27134 17.4322 7.63762 16.4622C7.70545 16.2791 7.78685 16.2248 7.97677 16.2248C13.6677 16.2316 19.3654 16.2316 25.0563 16.2316C25.1987 16.2316 25.348 16.2316 25.4836 16.2045C25.7956 16.1367 25.9991 15.8721 25.9923 15.5669C25.9856 15.2684 25.7888 15.0175 25.4836 14.9496C25.3615 14.9225 25.2326 14.9225 25.1038 14.9225C19.3993 14.9225 13.7016 14.9225 7.99712 14.9225C7.79363 14.9225 7.69189 14.875 7.61727 14.6648C7.25099 13.6405 6.28103 12.9758 5.20254 12.9758C4.1037 12.9758 3.14052 13.6405 2.76067 14.6715C2.73354 14.7529 2.69962 14.8275 2.67249 14.9157C2.06202 14.9157 1.45156 14.9293 0.841088 14.9089C0.440893 14.8954 0.149225 15.031 0 15.4177C0 15.5262 0 15.6279 0 15.7297ZM6.49808 15.5805C6.4913 16.2927 5.91475 16.8692 5.20932 16.876C4.49032 16.8828 3.90699 16.2927 3.90699 15.5669C3.90699 14.8547 4.48354 14.2781 5.19575 14.2713C5.90797 14.2713 6.50487 14.8615 6.49808 15.5805Z" fill="white"/>
</svg>
