<svg width="260" height="264" viewBox="0 0 260 264" fill="none" xmlns="http://www.w3.org/2000/svg">
<path d="M129.804 263.664C95.1504 263.664 62.5526 249.944 37.9819 225.089C13.509 200.234 0 167.127 0 131.832C0 96.6371 13.509 63.53 37.9819 38.5753C62.4547 13.6207 95.0525 0 129.804 0C164.458 0 197.055 13.7201 221.626 38.5753C246.099 63.4306 259.608 96.5377 259.608 131.832C259.608 167.027 246.099 200.134 221.626 225.089C197.055 249.944 164.458 263.664 129.804 263.664ZM129.804 1.09364C95.4441 1.09364 63.042 14.7143 38.765 39.3707C14.4879 64.1265 1.0768 96.9354 1.0768 131.832C1.0768 166.729 14.4879 199.637 38.765 224.294C63.1399 249.049 95.4441 262.571 129.804 262.571C164.164 262.571 196.566 248.95 220.843 224.294C245.12 199.637 258.531 166.729 258.531 131.832C258.531 96.9354 245.12 64.0271 220.843 39.3707C196.468 14.6149 164.164 1.09364 129.804 1.09364Z" fill="white"/>
<path d="M111.261 165.463V98.2015L162.917 131.783L111.261 165.463Z" fill="white"/>
</svg>
