<svg width="74" height="75" viewBox="0 0 74 75" fill="none" xmlns="http://www.w3.org/2000/svg">
<path d="M11.0937 63.2797L11.0944 63.2804C17.9473 70.2126 27.0435 74.0421 36.713 74.0421C46.3826 74.0421 55.4788 70.2126 62.3317 63.2804L62.3331 63.2789C69.1584 56.3192 72.9261 47.0846 72.9261 37.271C72.9261 27.4306 69.1587 18.1954 62.3324 11.2624L62.3317 11.2617C55.4788 4.32948 46.3826 0.5 36.713 0.5C27.0178 0.5 17.9204 4.3013 11.093 11.2632C4.26764 18.2229 0.5 27.4575 0.5 37.271C0.5 47.1115 4.26741 56.3467 11.0937 63.2797ZM1.79626 37.271C1.79626 27.8007 5.43477 18.9 12.0219 12.1827C18.6079 5.49382 27.3946 1.80089 36.713 1.80089C46.0318 1.80089 54.7915 5.46673 61.4044 12.1829C67.9907 18.8722 71.6298 27.7999 71.6298 37.271C71.6298 46.7422 67.9907 55.6699 61.4044 62.3592C54.8183 69.0482 46.0315 72.7412 36.713 72.7412C27.3943 72.7412 18.6345 69.0754 12.0217 62.3592C5.43535 55.6699 1.79626 46.7422 1.79626 37.271Z" fill="white" stroke="white"/>
<path d="M31.1113 46.5239V47.4468L31.8844 46.9427L46.0967 37.6764L46.7401 37.257L46.0962 36.8384L31.8838 27.599L31.1113 27.0968V28.0182V46.5239Z" fill="white" stroke="white"/>
</svg>
